<?xml version="1.0" encoding="utf-8" standalone="no"?>
<!DOCTYPE svg PUBLIC "-//W3C//DTD SVG 1.1//EN"
  "http://www.w3.org/Graphics/SVG/1.1/DTD/svg11.dtd">
<svg xmlns:xlink="http://www.w3.org/1999/xlink" width="576pt" height="432pt" viewBox="0 0 576 432" xmlns="http://www.w3.org/2000/svg" version="1.1">
 <metadata>
  <rdf:RDF xmlns:dc="http://purl.org/dc/elements/1.1/" xmlns:cc="http://creativecommons.org/ns#" xmlns:rdf="http://www.w3.org/1999/02/22-rdf-syntax-ns#">
   <cc:Work>
    <dc:type rdf:resource="http://purl.org/dc/dcmitype/StillImage"/>
    <dc:date>2025-05-13T11:28:38.069147</dc:date>
    <dc:format>image/svg+xml</dc:format>
    <dc:creator>
     <cc:Agent>
      <dc:title>Matplotlib v3.5.2, https://matplotlib.org/</dc:title>
     </cc:Agent>
    </dc:creator>
   </cc:Work>
  </rdf:RDF>
 </metadata>
 <defs>
  <style type="text/css">*{stroke-linejoin: round; stroke-linecap: butt}</style>
 </defs>
 <g id="figure_1">
  <g id="patch_1">
   <path d="M 0 432 
L 576 432 
L 576 0 
L 0 0 
z
" style="fill: #ffffff"/>
  </g>
  <g id="axes_1">
   <g id="patch_2">
    <path d="M 47.8 390.2 
L 286.4125 390.2 
L 286.4125 26.8 
L 47.8 26.8 
z
" style="fill: #ffffff"/>
   </g>
   <g id="matplotlib.axis_1">
    <g id="xtick_1">
     <g id="line2d_1">
      <path d="M 56.167456 390.2 
L 56.167456 26.8 
" clip-path="url(#p04845b1603)" style="fill: none; stroke: #b0b0b0; stroke-width: 0.8; stroke-linecap: square"/>
     </g>
     <g id="line2d_2">
      <defs>
       <path id="mdafecf3a80" d="M 0 0 
L 0 3.5 
" style="stroke: #000000; stroke-width: 0.8"/>
      </defs>
      <g>
       <use xlink:href="#mdafecf3a80" x="56.167456" y="390.2" style="stroke: #000000; stroke-width: 0.8"/>
      </g>
     </g>
     <g id="text_1">
      <!-- 0.00 -->
      <g transform="translate(45.034644 404.798438)scale(0.1 -0.1)">
       <defs>
        <path id="DejaVuSans-30" d="M 2034 4250 
Q 1547 4250 1301 3770 
Q 1056 3291 1056 2328 
Q 1056 1369 1301 889 
Q 1547 409 2034 409 
Q 2525 409 2770 889 
Q 3016 1369 3016 2328 
Q 3016 3291 2770 3770 
Q 2525 4250 2034 4250 
z
M 2034 4750 
Q 2819 4750 3233 4129 
Q 3647 3509 3647 2328 
Q 3647 1150 3233 529 
Q 2819 -91 2034 -91 
Q 1250 -91 836 529 
Q 422 1150 422 2328 
Q 422 3509 836 4129 
Q 1250 4750 2034 4750 
z
" transform="scale(0.015625)"/>
        <path id="DejaVuSans-2e" d="M 684 794 
L 1344 794 
L 1344 0 
L 684 0 
L 684 794 
z
" transform="scale(0.015625)"/>
       </defs>
       <use xlink:href="#DejaVuSans-30"/>
       <use xlink:href="#DejaVuSans-2e" x="63.623047"/>
       <use xlink:href="#DejaVuSans-30" x="95.410156"/>
       <use xlink:href="#DejaVuSans-30" x="159.033203"/>
      </g>
     </g>
    </g>
    <g id="xtick_2">
     <g id="line2d_3">
      <path d="M 116.508221 390.2 
L 116.508221 26.8 
" clip-path="url(#p04845b1603)" style="fill: none; stroke: #b0b0b0; stroke-width: 0.8; stroke-linecap: square"/>
     </g>
     <g id="line2d_4">
      <g>
       <use xlink:href="#mdafecf3a80" x="116.508221" y="390.2" style="stroke: #000000; stroke-width: 0.8"/>
      </g>
     </g>
     <g id="text_2">
      <!-- 0.05 -->
      <g transform="translate(105.375408 404.798438)scale(0.1 -0.1)">
       <defs>
        <path id="DejaVuSans-35" d="M 691 4666 
L 3169 4666 
L 3169 4134 
L 1269 4134 
L 1269 2991 
Q 1406 3038 1543 3061 
Q 1681 3084 1819 3084 
Q 2600 3084 3056 2656 
Q 3513 2228 3513 1497 
Q 3513 744 3044 326 
Q 2575 -91 1722 -91 
Q 1428 -91 1123 -41 
Q 819 9 494 109 
L 494 744 
Q 775 591 1075 516 
Q 1375 441 1709 441 
Q 2250 441 2565 725 
Q 2881 1009 2881 1497 
Q 2881 1984 2565 2268 
Q 2250 2553 1709 2553 
Q 1456 2553 1204 2497 
Q 953 2441 691 2322 
L 691 4666 
z
" transform="scale(0.015625)"/>
       </defs>
       <use xlink:href="#DejaVuSans-30"/>
       <use xlink:href="#DejaVuSans-2e" x="63.623047"/>
       <use xlink:href="#DejaVuSans-30" x="95.410156"/>
       <use xlink:href="#DejaVuSans-35" x="159.033203"/>
      </g>
     </g>
    </g>
    <g id="xtick_3">
     <g id="line2d_5">
      <path d="M 176.848986 390.2 
L 176.848986 26.8 
" clip-path="url(#p04845b1603)" style="fill: none; stroke: #b0b0b0; stroke-width: 0.8; stroke-linecap: square"/>
     </g>
     <g id="line2d_6">
      <g>
       <use xlink:href="#mdafecf3a80" x="176.848986" y="390.2" style="stroke: #000000; stroke-width: 0.8"/>
      </g>
     </g>
     <g id="text_3">
      <!-- 0.10 -->
      <g transform="translate(165.716173 404.798438)scale(0.1 -0.1)">
       <defs>
        <path id="DejaVuSans-31" d="M 794 531 
L 1825 531 
L 1825 4091 
L 703 3866 
L 703 4441 
L 1819 4666 
L 2450 4666 
L 2450 531 
L 3481 531 
L 3481 0 
L 794 0 
L 794 531 
z
" transform="scale(0.015625)"/>
       </defs>
       <use xlink:href="#DejaVuSans-30"/>
       <use xlink:href="#DejaVuSans-2e" x="63.623047"/>
       <use xlink:href="#DejaVuSans-31" x="95.410156"/>
       <use xlink:href="#DejaVuSans-30" x="159.033203"/>
      </g>
     </g>
    </g>
    <g id="xtick_4">
     <g id="line2d_7">
      <path d="M 237.189751 390.2 
L 237.189751 26.8 
" clip-path="url(#p04845b1603)" style="fill: none; stroke: #b0b0b0; stroke-width: 0.8; stroke-linecap: square"/>
     </g>
     <g id="line2d_8">
      <g>
       <use xlink:href="#mdafecf3a80" x="237.189751" y="390.2" style="stroke: #000000; stroke-width: 0.8"/>
      </g>
     </g>
     <g id="text_4">
      <!-- 0.15 -->
      <g transform="translate(226.056938 404.798438)scale(0.1 -0.1)">
       <use xlink:href="#DejaVuSans-30"/>
       <use xlink:href="#DejaVuSans-2e" x="63.623047"/>
       <use xlink:href="#DejaVuSans-31" x="95.410156"/>
       <use xlink:href="#DejaVuSans-35" x="159.033203"/>
      </g>
     </g>
    </g>
    <g id="text_5">
     <!-- Node size (m) -->
     <g transform="translate(132.410937 418.476562)scale(0.1 -0.1)">
      <defs>
       <path id="DejaVuSans-4e" d="M 628 4666 
L 1478 4666 
L 3547 763 
L 3547 4666 
L 4159 4666 
L 4159 0 
L 3309 0 
L 1241 3903 
L 1241 0 
L 628 0 
L 628 4666 
z
" transform="scale(0.015625)"/>
       <path id="DejaVuSans-6f" d="M 1959 3097 
Q 1497 3097 1228 2736 
Q 959 2375 959 1747 
Q 959 1119 1226 758 
Q 1494 397 1959 397 
Q 2419 397 2687 759 
Q 2956 1122 2956 1747 
Q 2956 2369 2687 2733 
Q 2419 3097 1959 3097 
z
M 1959 3584 
Q 2709 3584 3137 3096 
Q 3566 2609 3566 1747 
Q 3566 888 3137 398 
Q 2709 -91 1959 -91 
Q 1206 -91 779 398 
Q 353 888 353 1747 
Q 353 2609 779 3096 
Q 1206 3584 1959 3584 
z
" transform="scale(0.015625)"/>
       <path id="DejaVuSans-64" d="M 2906 2969 
L 2906 4863 
L 3481 4863 
L 3481 0 
L 2906 0 
L 2906 525 
Q 2725 213 2448 61 
Q 2172 -91 1784 -91 
Q 1150 -91 751 415 
Q 353 922 353 1747 
Q 353 2572 751 3078 
Q 1150 3584 1784 3584 
Q 2172 3584 2448 3432 
Q 2725 3281 2906 2969 
z
M 947 1747 
Q 947 1113 1208 752 
Q 1469 391 1925 391 
Q 2381 391 2643 752 
Q 2906 1113 2906 1747 
Q 2906 2381 2643 2742 
Q 2381 3103 1925 3103 
Q 1469 3103 1208 2742 
Q 947 2381 947 1747 
z
" transform="scale(0.015625)"/>
       <path id="DejaVuSans-65" d="M 3597 1894 
L 3597 1613 
L 953 1613 
Q 991 1019 1311 708 
Q 1631 397 2203 397 
Q 2534 397 2845 478 
Q 3156 559 3463 722 
L 3463 178 
Q 3153 47 2828 -22 
Q 2503 -91 2169 -91 
Q 1331 -91 842 396 
Q 353 884 353 1716 
Q 353 2575 817 3079 
Q 1281 3584 2069 3584 
Q 2775 3584 3186 3129 
Q 3597 2675 3597 1894 
z
M 3022 2063 
Q 3016 2534 2758 2815 
Q 2500 3097 2075 3097 
Q 1594 3097 1305 2825 
Q 1016 2553 972 2059 
L 3022 2063 
z
" transform="scale(0.015625)"/>
       <path id="DejaVuSans-20" transform="scale(0.015625)"/>
       <path id="DejaVuSans-73" d="M 2834 3397 
L 2834 2853 
Q 2591 2978 2328 3040 
Q 2066 3103 1784 3103 
Q 1356 3103 1142 2972 
Q 928 2841 928 2578 
Q 928 2378 1081 2264 
Q 1234 2150 1697 2047 
L 1894 2003 
Q 2506 1872 2764 1633 
Q 3022 1394 3022 966 
Q 3022 478 2636 193 
Q 2250 -91 1575 -91 
Q 1294 -91 989 -36 
Q 684 19 347 128 
L 347 722 
Q 666 556 975 473 
Q 1284 391 1588 391 
Q 1994 391 2212 530 
Q 2431 669 2431 922 
Q 2431 1156 2273 1281 
Q 2116 1406 1581 1522 
L 1381 1569 
Q 847 1681 609 1914 
Q 372 2147 372 2553 
Q 372 3047 722 3315 
Q 1072 3584 1716 3584 
Q 2034 3584 2315 3537 
Q 2597 3491 2834 3397 
z
" transform="scale(0.015625)"/>
       <path id="DejaVuSans-69" d="M 603 3500 
L 1178 3500 
L 1178 0 
L 603 0 
L 603 3500 
z
M 603 4863 
L 1178 4863 
L 1178 4134 
L 603 4134 
L 603 4863 
z
" transform="scale(0.015625)"/>
       <path id="DejaVuSans-7a" d="M 353 3500 
L 3084 3500 
L 3084 2975 
L 922 459 
L 3084 459 
L 3084 0 
L 275 0 
L 275 525 
L 2438 3041 
L 353 3041 
L 353 3500 
z
" transform="scale(0.015625)"/>
       <path id="DejaVuSans-28" d="M 1984 4856 
Q 1566 4138 1362 3434 
Q 1159 2731 1159 2009 
Q 1159 1288 1364 580 
Q 1569 -128 1984 -844 
L 1484 -844 
Q 1016 -109 783 600 
Q 550 1309 550 2009 
Q 550 2706 781 3412 
Q 1013 4119 1484 4856 
L 1984 4856 
z
" transform="scale(0.015625)"/>
       <path id="DejaVuSans-6d" d="M 3328 2828 
Q 3544 3216 3844 3400 
Q 4144 3584 4550 3584 
Q 5097 3584 5394 3201 
Q 5691 2819 5691 2113 
L 5691 0 
L 5113 0 
L 5113 2094 
Q 5113 2597 4934 2840 
Q 4756 3084 4391 3084 
Q 3944 3084 3684 2787 
Q 3425 2491 3425 1978 
L 3425 0 
L 2847 0 
L 2847 2094 
Q 2847 2600 2669 2842 
Q 2491 3084 2119 3084 
Q 1678 3084 1418 2786 
Q 1159 2488 1159 1978 
L 1159 0 
L 581 0 
L 581 3500 
L 1159 3500 
L 1159 2956 
Q 1356 3278 1631 3431 
Q 1906 3584 2284 3584 
Q 2666 3584 2933 3390 
Q 3200 3197 3328 2828 
z
" transform="scale(0.015625)"/>
       <path id="DejaVuSans-29" d="M 513 4856 
L 1013 4856 
Q 1481 4119 1714 3412 
Q 1947 2706 1947 2009 
Q 1947 1309 1714 600 
Q 1481 -109 1013 -844 
L 513 -844 
Q 928 -128 1133 580 
Q 1338 1288 1338 2009 
Q 1338 2731 1133 3434 
Q 928 4138 513 4856 
z
" transform="scale(0.015625)"/>
      </defs>
      <use xlink:href="#DejaVuSans-4e"/>
      <use xlink:href="#DejaVuSans-6f" x="74.804688"/>
      <use xlink:href="#DejaVuSans-64" x="135.986328"/>
      <use xlink:href="#DejaVuSans-65" x="199.462891"/>
      <use xlink:href="#DejaVuSans-20" x="260.986328"/>
      <use xlink:href="#DejaVuSans-73" x="292.773438"/>
      <use xlink:href="#DejaVuSans-69" x="344.873047"/>
      <use xlink:href="#DejaVuSans-7a" x="372.65625"/>
      <use xlink:href="#DejaVuSans-65" x="425.146484"/>
      <use xlink:href="#DejaVuSans-20" x="486.669922"/>
      <use xlink:href="#DejaVuSans-28" x="518.457031"/>
      <use xlink:href="#DejaVuSans-6d" x="557.470703"/>
      <use xlink:href="#DejaVuSans-29" x="654.882812"/>
     </g>
    </g>
   </g>
   <g id="matplotlib.axis_2">
    <g id="ytick_1">
     <g id="line2d_9">
      <path d="M 47.8 43.201515 
L 286.4125 43.201515 
" clip-path="url(#p04845b1603)" style="fill: none; stroke: #b0b0b0; stroke-width: 0.8; stroke-linecap: square"/>
     </g>
     <g id="line2d_10">
      <defs>
       <path id="m42e8e38cdc" d="M 0 0 
L -3.5 0 
" style="stroke: #000000; stroke-width: 0.8"/>
      </defs>
      <g>
       <use xlink:href="#m42e8e38cdc" x="47.8" y="43.201515" style="stroke: #000000; stroke-width: 0.8"/>
      </g>
     </g>
     <g id="text_6">
      <!-- 0.0 -->
      <g transform="translate(24.896875 47.000734)scale(0.1 -0.1)">
       <use xlink:href="#DejaVuSans-30"/>
       <use xlink:href="#DejaVuSans-2e" x="63.623047"/>
       <use xlink:href="#DejaVuSans-30" x="95.410156"/>
      </g>
     </g>
    </g>
    <g id="ytick_2">
     <g id="line2d_11">
      <path d="M 47.8 100.006545 
L 286.4125 100.006545 
" clip-path="url(#p04845b1603)" style="fill: none; stroke: #b0b0b0; stroke-width: 0.8; stroke-linecap: square"/>
     </g>
     <g id="line2d_12">
      <g>
       <use xlink:href="#m42e8e38cdc" x="47.8" y="100.006545" style="stroke: #000000; stroke-width: 0.8"/>
      </g>
     </g>
     <g id="text_7">
      <!-- 0.5 -->
      <g transform="translate(24.896875 103.805764)scale(0.1 -0.1)">
       <use xlink:href="#DejaVuSans-30"/>
       <use xlink:href="#DejaVuSans-2e" x="63.623047"/>
       <use xlink:href="#DejaVuSans-35" x="95.410156"/>
      </g>
     </g>
    </g>
    <g id="ytick_3">
     <g id="line2d_13">
      <path d="M 47.8 156.811575 
L 286.4125 156.811575 
" clip-path="url(#p04845b1603)" style="fill: none; stroke: #b0b0b0; stroke-width: 0.8; stroke-linecap: square"/>
     </g>
     <g id="line2d_14">
      <g>
       <use xlink:href="#m42e8e38cdc" x="47.8" y="156.811575" style="stroke: #000000; stroke-width: 0.8"/>
      </g>
     </g>
     <g id="text_8">
      <!-- 1.0 -->
      <g transform="translate(24.896875 160.610794)scale(0.1 -0.1)">
       <use xlink:href="#DejaVuSans-31"/>
       <use xlink:href="#DejaVuSans-2e" x="63.623047"/>
       <use xlink:href="#DejaVuSans-30" x="95.410156"/>
      </g>
     </g>
    </g>
    <g id="ytick_4">
     <g id="line2d_15">
      <path d="M 47.8 213.616605 
L 286.4125 213.616605 
" clip-path="url(#p04845b1603)" style="fill: none; stroke: #b0b0b0; stroke-width: 0.8; stroke-linecap: square"/>
     </g>
     <g id="line2d_16">
      <g>
       <use xlink:href="#m42e8e38cdc" x="47.8" y="213.616605" style="stroke: #000000; stroke-width: 0.8"/>
      </g>
     </g>
     <g id="text_9">
      <!-- 1.5 -->
      <g transform="translate(24.896875 217.415824)scale(0.1 -0.1)">
       <use xlink:href="#DejaVuSans-31"/>
       <use xlink:href="#DejaVuSans-2e" x="63.623047"/>
       <use xlink:href="#DejaVuSans-35" x="95.410156"/>
      </g>
     </g>
    </g>
    <g id="ytick_5">
     <g id="line2d_17">
      <path d="M 47.8 270.421635 
L 286.4125 270.421635 
" clip-path="url(#p04845b1603)" style="fill: none; stroke: #b0b0b0; stroke-width: 0.8; stroke-linecap: square"/>
     </g>
     <g id="line2d_18">
      <g>
       <use xlink:href="#m42e8e38cdc" x="47.8" y="270.421635" style="stroke: #000000; stroke-width: 0.8"/>
      </g>
     </g>
     <g id="text_10">
      <!-- 2.0 -->
      <g transform="translate(24.896875 274.220854)scale(0.1 -0.1)">
       <defs>
        <path id="DejaVuSans-32" d="M 1228 531 
L 3431 531 
L 3431 0 
L 469 0 
L 469 531 
Q 828 903 1448 1529 
Q 2069 2156 2228 2338 
Q 2531 2678 2651 2914 
Q 2772 3150 2772 3378 
Q 2772 3750 2511 3984 
Q 2250 4219 1831 4219 
Q 1534 4219 1204 4116 
Q 875 4013 500 3803 
L 500 4441 
Q 881 4594 1212 4672 
Q 1544 4750 1819 4750 
Q 2544 4750 2975 4387 
Q 3406 4025 3406 3419 
Q 3406 3131 3298 2873 
Q 3191 2616 2906 2266 
Q 2828 2175 2409 1742 
Q 1991 1309 1228 531 
z
" transform="scale(0.015625)"/>
       </defs>
       <use xlink:href="#DejaVuSans-32"/>
       <use xlink:href="#DejaVuSans-2e" x="63.623047"/>
       <use xlink:href="#DejaVuSans-30" x="95.410156"/>
      </g>
     </g>
    </g>
    <g id="ytick_6">
     <g id="line2d_19">
      <path d="M 47.8 327.226665 
L 286.4125 327.226665 
" clip-path="url(#p04845b1603)" style="fill: none; stroke: #b0b0b0; stroke-width: 0.8; stroke-linecap: square"/>
     </g>
     <g id="line2d_20">
      <g>
       <use xlink:href="#m42e8e38cdc" x="47.8" y="327.226665" style="stroke: #000000; stroke-width: 0.8"/>
      </g>
     </g>
     <g id="text_11">
      <!-- 2.5 -->
      <g transform="translate(24.896875 331.025883)scale(0.1 -0.1)">
       <use xlink:href="#DejaVuSans-32"/>
       <use xlink:href="#DejaVuSans-2e" x="63.623047"/>
       <use xlink:href="#DejaVuSans-35" x="95.410156"/>
      </g>
     </g>
    </g>
    <g id="ytick_7">
     <g id="line2d_21">
      <path d="M 47.8 384.031695 
L 286.4125 384.031695 
" clip-path="url(#p04845b1603)" style="fill: none; stroke: #b0b0b0; stroke-width: 0.8; stroke-linecap: square"/>
     </g>
     <g id="line2d_22">
      <g>
       <use xlink:href="#m42e8e38cdc" x="47.8" y="384.031695" style="stroke: #000000; stroke-width: 0.8"/>
      </g>
     </g>
     <g id="text_12">
      <!-- 3.0 -->
      <g transform="translate(24.896875 387.830913)scale(0.1 -0.1)">
       <defs>
        <path id="DejaVuSans-33" d="M 2597 2516 
Q 3050 2419 3304 2112 
Q 3559 1806 3559 1356 
Q 3559 666 3084 287 
Q 2609 -91 1734 -91 
Q 1441 -91 1130 -33 
Q 819 25 488 141 
L 488 750 
Q 750 597 1062 519 
Q 1375 441 1716 441 
Q 2309 441 2620 675 
Q 2931 909 2931 1356 
Q 2931 1769 2642 2001 
Q 2353 2234 1838 2234 
L 1294 2234 
L 1294 2753 
L 1863 2753 
Q 2328 2753 2575 2939 
Q 2822 3125 2822 3475 
Q 2822 3834 2567 4026 
Q 2313 4219 1838 4219 
Q 1578 4219 1281 4162 
Q 984 4106 628 3988 
L 628 4550 
Q 988 4650 1302 4700 
Q 1616 4750 1894 4750 
Q 2613 4750 3031 4423 
Q 3450 4097 3450 3541 
Q 3450 3153 3228 2886 
Q 3006 2619 2597 2516 
z
" transform="scale(0.015625)"/>
       </defs>
       <use xlink:href="#DejaVuSans-33"/>
       <use xlink:href="#DejaVuSans-2e" x="63.623047"/>
       <use xlink:href="#DejaVuSans-30" x="95.410156"/>
      </g>
     </g>
    </g>
    <g id="text_13">
     <!-- Depth (m) -->
     <g transform="translate(18.817187 234.090625)rotate(-90)scale(0.1 -0.1)">
      <defs>
       <path id="DejaVuSans-44" d="M 1259 4147 
L 1259 519 
L 2022 519 
Q 2988 519 3436 956 
Q 3884 1394 3884 2338 
Q 3884 3275 3436 3711 
Q 2988 4147 2022 4147 
L 1259 4147 
z
M 628 4666 
L 1925 4666 
Q 3281 4666 3915 4102 
Q 4550 3538 4550 2338 
Q 4550 1131 3912 565 
Q 3275 0 1925 0 
L 628 0 
L 628 4666 
z
" transform="scale(0.015625)"/>
       <path id="DejaVuSans-70" d="M 1159 525 
L 1159 -1331 
L 581 -1331 
L 581 3500 
L 1159 3500 
L 1159 2969 
Q 1341 3281 1617 3432 
Q 1894 3584 2278 3584 
Q 2916 3584 3314 3078 
Q 3713 2572 3713 1747 
Q 3713 922 3314 415 
Q 2916 -91 2278 -91 
Q 1894 -91 1617 61 
Q 1341 213 1159 525 
z
M 3116 1747 
Q 3116 2381 2855 2742 
Q 2594 3103 2138 3103 
Q 1681 3103 1420 2742 
Q 1159 2381 1159 1747 
Q 1159 1113 1420 752 
Q 1681 391 2138 391 
Q 2594 391 2855 752 
Q 3116 1113 3116 1747 
z
" transform="scale(0.015625)"/>
       <path id="DejaVuSans-74" d="M 1172 4494 
L 1172 3500 
L 2356 3500 
L 2356 3053 
L 1172 3053 
L 1172 1153 
Q 1172 725 1289 603 
Q 1406 481 1766 481 
L 2356 481 
L 2356 0 
L 1766 0 
Q 1100 0 847 248 
Q 594 497 594 1153 
L 594 3053 
L 172 3053 
L 172 3500 
L 594 3500 
L 594 4494 
L 1172 4494 
z
" transform="scale(0.015625)"/>
       <path id="DejaVuSans-68" d="M 3513 2113 
L 3513 0 
L 2938 0 
L 2938 2094 
Q 2938 2591 2744 2837 
Q 2550 3084 2163 3084 
Q 1697 3084 1428 2787 
Q 1159 2491 1159 1978 
L 1159 0 
L 581 0 
L 581 4863 
L 1159 4863 
L 1159 2956 
Q 1366 3272 1645 3428 
Q 1925 3584 2291 3584 
Q 2894 3584 3203 3211 
Q 3513 2838 3513 2113 
z
" transform="scale(0.015625)"/>
      </defs>
      <use xlink:href="#DejaVuSans-44"/>
      <use xlink:href="#DejaVuSans-65" x="77.001953"/>
      <use xlink:href="#DejaVuSans-70" x="138.525391"/>
      <use xlink:href="#DejaVuSans-74" x="202.001953"/>
      <use xlink:href="#DejaVuSans-68" x="241.210938"/>
      <use xlink:href="#DejaVuSans-20" x="304.589844"/>
      <use xlink:href="#DejaVuSans-28" x="336.376953"/>
      <use xlink:href="#DejaVuSans-6d" x="375.390625"/>
      <use xlink:href="#DejaVuSans-29" x="472.802734"/>
     </g>
    </g>
   </g>
   <g id="line2d_23">
    <path d="M 58.646023 43.318182 
L 59.14654 43.575074 
L 59.748131 43.883844 
L 60.471206 44.254965 
L 61.340297 44.70103 
L 62.384891 45.237172 
L 63.640429 45.881583 
L 65.149507 46.656124 
L 66.963327 47.587074 
L 69.143425 48.706019 
L 71.763769 50.050922 
L 74.91326 51.667412 
L 78.698753 53.610334 
L 83.248683 55.945605 
L 88.717417 58.752456 
L 95.290496 62.126118 
L 103.190932 66.181051 
L 112.686768 71.05483 
L 124.100175 76.912812 
L 137.818385 83.953743 
L 154.306826 92.416507 
L 174.124912 102.588227 
L 197.945027 114.814005 
L 226.575332 129.508634 
L 260.98719 147.17067 
L 275.566477 167.138729 
L 275.566477 187.793038 
L 275.566477 208.447347 
L 275.566477 229.101656 
L 275.566477 249.755965 
L 275.566477 270.410274 
L 275.566477 291.064583 
L 275.566477 311.718892 
L 275.566477 332.3732 
L 275.566477 353.027509 
L 275.566477 373.681818 
" clip-path="url(#p04845b1603)" style="fill: none; stroke: #1f77b4; stroke-width: 1.5; stroke-linecap: square"/>
    <defs>
     <path id="m6d40252765" d="M 0 3 
C 0.795609 3 1.55874 2.683901 2.12132 2.12132 
C 2.683901 1.55874 3 0.795609 3 0 
C 3 -0.795609 2.683901 -1.55874 2.12132 -2.12132 
C 1.55874 -2.683901 0.795609 -3 0 -3 
C -0.795609 -3 -1.55874 -2.683901 -2.12132 -2.12132 
C -2.683901 -1.55874 -3 -0.795609 -3 0 
C -3 0.795609 -2.683901 1.55874 -2.12132 2.12132 
C -1.55874 2.683901 -0.795609 3 0 3 
z
" style="stroke: #1f77b4"/>
    </defs>
    <g clip-path="url(#p04845b1603)">
     <use xlink:href="#m6d40252765" x="58.646023" y="43.318182" style="fill: #1f77b4; stroke: #1f77b4"/>
     <use xlink:href="#m6d40252765" x="59.14654" y="43.575074" style="fill: #1f77b4; stroke: #1f77b4"/>
     <use xlink:href="#m6d40252765" x="59.748131" y="43.883844" style="fill: #1f77b4; stroke: #1f77b4"/>
     <use xlink:href="#m6d40252765" x="60.471206" y="44.254965" style="fill: #1f77b4; stroke: #1f77b4"/>
     <use xlink:href="#m6d40252765" x="61.340297" y="44.70103" style="fill: #1f77b4; stroke: #1f77b4"/>
     <use xlink:href="#m6d40252765" x="62.384891" y="45.237172" style="fill: #1f77b4; stroke: #1f77b4"/>
     <use xlink:href="#m6d40252765" x="63.640429" y="45.881583" style="fill: #1f77b4; stroke: #1f77b4"/>
     <use xlink:href="#m6d40252765" x="65.149507" y="46.656124" style="fill: #1f77b4; stroke: #1f77b4"/>
     <use xlink:href="#m6d40252765" x="66.963327" y="47.587074" style="fill: #1f77b4; stroke: #1f77b4"/>
     <use xlink:href="#m6d40252765" x="69.143425" y="48.706019" style="fill: #1f77b4; stroke: #1f77b4"/>
     <use xlink:href="#m6d40252765" x="71.763769" y="50.050922" style="fill: #1f77b4; stroke: #1f77b4"/>
     <use xlink:href="#m6d40252765" x="74.91326" y="51.667412" style="fill: #1f77b4; stroke: #1f77b4"/>
     <use xlink:href="#m6d40252765" x="78.698753" y="53.610334" style="fill: #1f77b4; stroke: #1f77b4"/>
     <use xlink:href="#m6d40252765" x="83.248683" y="55.945605" style="fill: #1f77b4; stroke: #1f77b4"/>
     <use xlink:href="#m6d40252765" x="88.717417" y="58.752456" style="fill: #1f77b4; stroke: #1f77b4"/>
     <use xlink:href="#m6d40252765" x="95.290496" y="62.126118" style="fill: #1f77b4; stroke: #1f77b4"/>
     <use xlink:href="#m6d40252765" x="103.190932" y="66.181051" style="fill: #1f77b4; stroke: #1f77b4"/>
     <use xlink:href="#m6d40252765" x="112.686768" y="71.05483" style="fill: #1f77b4; stroke: #1f77b4"/>
     <use xlink:href="#m6d40252765" x="124.100175" y="76.912812" style="fill: #1f77b4; stroke: #1f77b4"/>
     <use xlink:href="#m6d40252765" x="137.818385" y="83.953743" style="fill: #1f77b4; stroke: #1f77b4"/>
     <use xlink:href="#m6d40252765" x="154.306826" y="92.416507" style="fill: #1f77b4; stroke: #1f77b4"/>
     <use xlink:href="#m6d40252765" x="174.124912" y="102.588227" style="fill: #1f77b4; stroke: #1f77b4"/>
     <use xlink:href="#m6d40252765" x="197.945027" y="114.814005" style="fill: #1f77b4; stroke: #1f77b4"/>
     <use xlink:href="#m6d40252765" x="226.575332" y="129.508634" style="fill: #1f77b4; stroke: #1f77b4"/>
     <use xlink:href="#m6d40252765" x="260.98719" y="147.17067" style="fill: #1f77b4; stroke: #1f77b4"/>
     <use xlink:href="#m6d40252765" x="275.566477" y="167.138729" style="fill: #1f77b4; stroke: #1f77b4"/>
     <use xlink:href="#m6d40252765" x="275.566477" y="187.793038" style="fill: #1f77b4; stroke: #1f77b4"/>
     <use xlink:href="#m6d40252765" x="275.566477" y="208.447347" style="fill: #1f77b4; stroke: #1f77b4"/>
     <use xlink:href="#m6d40252765" x="275.566477" y="229.101656" style="fill: #1f77b4; stroke: #1f77b4"/>
     <use xlink:href="#m6d40252765" x="275.566477" y="249.755965" style="fill: #1f77b4; stroke: #1f77b4"/>
     <use xlink:href="#m6d40252765" x="275.566477" y="270.410274" style="fill: #1f77b4; stroke: #1f77b4"/>
     <use xlink:href="#m6d40252765" x="275.566477" y="291.064583" style="fill: #1f77b4; stroke: #1f77b4"/>
     <use xlink:href="#m6d40252765" x="275.566477" y="311.718892" style="fill: #1f77b4; stroke: #1f77b4"/>
     <use xlink:href="#m6d40252765" x="275.566477" y="332.3732" style="fill: #1f77b4; stroke: #1f77b4"/>
     <use xlink:href="#m6d40252765" x="275.566477" y="353.027509" style="fill: #1f77b4; stroke: #1f77b4"/>
     <use xlink:href="#m6d40252765" x="275.566477" y="373.681818" style="fill: #1f77b4; stroke: #1f77b4"/>
    </g>
   </g>
   <g id="patch_3">
    <path d="M 47.8 390.2 
L 47.8 26.8 
" style="fill: none; stroke: #000000; stroke-width: 0.8; stroke-linejoin: miter; stroke-linecap: square"/>
   </g>
   <g id="patch_4">
    <path d="M 286.4125 390.2 
L 286.4125 26.8 
" style="fill: none; stroke: #000000; stroke-width: 0.8; stroke-linejoin: miter; stroke-linecap: square"/>
   </g>
   <g id="patch_5">
    <path d="M 47.8 390.2 
L 286.4125 390.2 
" style="fill: none; stroke: #000000; stroke-width: 0.8; stroke-linejoin: miter; stroke-linecap: square"/>
   </g>
   <g id="patch_6">
    <path d="M 47.8 26.8 
L 286.4125 26.8 
" style="fill: none; stroke: #000000; stroke-width: 0.8; stroke-linejoin: miter; stroke-linecap: square"/>
   </g>
   <g id="text_14">
    <!-- a) Depth vs Node Size -->
    <g transform="translate(100.530625 20.8)scale(0.12 -0.12)">
     <defs>
      <path id="DejaVuSans-61" d="M 2194 1759 
Q 1497 1759 1228 1600 
Q 959 1441 959 1056 
Q 959 750 1161 570 
Q 1363 391 1709 391 
Q 2188 391 2477 730 
Q 2766 1069 2766 1631 
L 2766 1759 
L 2194 1759 
z
M 3341 1997 
L 3341 0 
L 2766 0 
L 2766 531 
Q 2569 213 2275 61 
Q 1981 -91 1556 -91 
Q 1019 -91 701 211 
Q 384 513 384 1019 
Q 384 1609 779 1909 
Q 1175 2209 1959 2209 
L 2766 2209 
L 2766 2266 
Q 2766 2663 2505 2880 
Q 2244 3097 1772 3097 
Q 1472 3097 1187 3025 
Q 903 2953 641 2809 
L 641 3341 
Q 956 3463 1253 3523 
Q 1550 3584 1831 3584 
Q 2591 3584 2966 3190 
Q 3341 2797 3341 1997 
z
" transform="scale(0.015625)"/>
      <path id="DejaVuSans-76" d="M 191 3500 
L 800 3500 
L 1894 563 
L 2988 3500 
L 3597 3500 
L 2284 0 
L 1503 0 
L 191 3500 
z
" transform="scale(0.015625)"/>
      <path id="DejaVuSans-53" d="M 3425 4513 
L 3425 3897 
Q 3066 4069 2747 4153 
Q 2428 4238 2131 4238 
Q 1616 4238 1336 4038 
Q 1056 3838 1056 3469 
Q 1056 3159 1242 3001 
Q 1428 2844 1947 2747 
L 2328 2669 
Q 3034 2534 3370 2195 
Q 3706 1856 3706 1288 
Q 3706 609 3251 259 
Q 2797 -91 1919 -91 
Q 1588 -91 1214 -16 
Q 841 59 441 206 
L 441 856 
Q 825 641 1194 531 
Q 1563 422 1919 422 
Q 2459 422 2753 634 
Q 3047 847 3047 1241 
Q 3047 1584 2836 1778 
Q 2625 1972 2144 2069 
L 1759 2144 
Q 1053 2284 737 2584 
Q 422 2884 422 3419 
Q 422 4038 858 4394 
Q 1294 4750 2059 4750 
Q 2388 4750 2728 4690 
Q 3069 4631 3425 4513 
z
" transform="scale(0.015625)"/>
     </defs>
     <use xlink:href="#DejaVuSans-61"/>
     <use xlink:href="#DejaVuSans-29" x="61.279297"/>
     <use xlink:href="#DejaVuSans-20" x="100.292969"/>
     <use xlink:href="#DejaVuSans-44" x="132.080078"/>
     <use xlink:href="#DejaVuSans-65" x="209.082031"/>
     <use xlink:href="#DejaVuSans-70" x="270.605469"/>
     <use xlink:href="#DejaVuSans-74" x="334.082031"/>
     <use xlink:href="#DejaVuSans-68" x="373.291016"/>
     <use xlink:href="#DejaVuSans-20" x="436.669922"/>
     <use xlink:href="#DejaVuSans-76" x="468.457031"/>
     <use xlink:href="#DejaVuSans-73" x="527.636719"/>
     <use xlink:href="#DejaVuSans-20" x="579.736328"/>
     <use xlink:href="#DejaVuSans-4e" x="611.523438"/>
     <use xlink:href="#DejaVuSans-6f" x="686.328125"/>
     <use xlink:href="#DejaVuSans-64" x="747.509766"/>
     <use xlink:href="#DejaVuSans-65" x="810.986328"/>
     <use xlink:href="#DejaVuSans-20" x="872.509766"/>
     <use xlink:href="#DejaVuSans-53" x="904.296875"/>
     <use xlink:href="#DejaVuSans-69" x="967.773438"/>
     <use xlink:href="#DejaVuSans-7a" x="995.556641"/>
     <use xlink:href="#DejaVuSans-65" x="1048.046875"/>
    </g>
   </g>
  </g>
  <g id="axes_2">
   <g id="patch_7">
    <path d="M 320.2125 390.2 
L 558.825 390.2 
L 558.825 26.8 
L 320.2125 26.8 
z
" style="fill: #ffffff"/>
   </g>
   <g id="matplotlib.axis_3">
    <g id="xtick_5">
     <g id="line2d_24">
      <path d="M 320.2125 390.2 
L 320.2125 26.8 
" clip-path="url(#pa0ca7e261d)" style="fill: none; stroke: #b0b0b0; stroke-width: 0.8; stroke-linecap: square"/>
     </g>
     <g id="line2d_25">
      <g>
       <use xlink:href="#mdafecf3a80" x="320.2125" y="390.2" style="stroke: #000000; stroke-width: 0.8"/>
      </g>
     </g>
     <g id="text_15">
      <!-- 0 -->
      <g transform="translate(317.03125 404.798438)scale(0.1 -0.1)">
       <use xlink:href="#DejaVuSans-30"/>
      </g>
     </g>
    </g>
    <g id="xtick_6">
     <g id="line2d_26">
      <path d="M 379.865625 390.2 
L 379.865625 26.8 
" clip-path="url(#pa0ca7e261d)" style="fill: none; stroke: #b0b0b0; stroke-width: 0.8; stroke-linecap: square"/>
     </g>
     <g id="line2d_27">
      <g>
       <use xlink:href="#mdafecf3a80" x="379.865625" y="390.2" style="stroke: #000000; stroke-width: 0.8"/>
      </g>
     </g>
     <g id="text_16">
      <!-- 10 -->
      <g transform="translate(373.503125 404.798438)scale(0.1 -0.1)">
       <use xlink:href="#DejaVuSans-31"/>
       <use xlink:href="#DejaVuSans-30" x="63.623047"/>
      </g>
     </g>
    </g>
    <g id="xtick_7">
     <g id="line2d_28">
      <path d="M 439.51875 390.2 
L 439.51875 26.8 
" clip-path="url(#pa0ca7e261d)" style="fill: none; stroke: #b0b0b0; stroke-width: 0.8; stroke-linecap: square"/>
     </g>
     <g id="line2d_29">
      <g>
       <use xlink:href="#mdafecf3a80" x="439.51875" y="390.2" style="stroke: #000000; stroke-width: 0.8"/>
      </g>
     </g>
     <g id="text_17">
      <!-- 20 -->
      <g transform="translate(433.15625 404.798438)scale(0.1 -0.1)">
       <use xlink:href="#DejaVuSans-32"/>
       <use xlink:href="#DejaVuSans-30" x="63.623047"/>
      </g>
     </g>
    </g>
    <g id="xtick_8">
     <g id="line2d_30">
      <path d="M 499.171875 390.2 
L 499.171875 26.8 
" clip-path="url(#pa0ca7e261d)" style="fill: none; stroke: #b0b0b0; stroke-width: 0.8; stroke-linecap: square"/>
     </g>
     <g id="line2d_31">
      <g>
       <use xlink:href="#mdafecf3a80" x="499.171875" y="390.2" style="stroke: #000000; stroke-width: 0.8"/>
      </g>
     </g>
     <g id="text_18">
      <!-- 30 -->
      <g transform="translate(492.809375 404.798438)scale(0.1 -0.1)">
       <use xlink:href="#DejaVuSans-33"/>
       <use xlink:href="#DejaVuSans-30" x="63.623047"/>
      </g>
     </g>
    </g>
    <g id="xtick_9">
     <g id="line2d_32">
      <path d="M 558.825 390.2 
L 558.825 26.8 
" clip-path="url(#pa0ca7e261d)" style="fill: none; stroke: #b0b0b0; stroke-width: 0.8; stroke-linecap: square"/>
     </g>
     <g id="line2d_33">
      <g>
       <use xlink:href="#mdafecf3a80" x="558.825" y="390.2" style="stroke: #000000; stroke-width: 0.8"/>
      </g>
     </g>
     <g id="text_19">
      <!-- 40 -->
      <g transform="translate(552.4625 404.798438)scale(0.1 -0.1)">
       <defs>
        <path id="DejaVuSans-34" d="M 2419 4116 
L 825 1625 
L 2419 1625 
L 2419 4116 
z
M 2253 4666 
L 3047 4666 
L 3047 1625 
L 3713 1625 
L 3713 1100 
L 3047 1100 
L 3047 0 
L 2419 0 
L 2419 1100 
L 313 1100 
L 313 1709 
L 2253 4666 
z
" transform="scale(0.015625)"/>
       </defs>
       <use xlink:href="#DejaVuSans-34"/>
       <use xlink:href="#DejaVuSans-30" x="63.623047"/>
      </g>
     </g>
    </g>
    <g id="text_20">
     <!-- Node Number -->
     <g transform="translate(404.792969 418.476562)scale(0.1 -0.1)">
      <defs>
       <path id="DejaVuSans-75" d="M 544 1381 
L 544 3500 
L 1119 3500 
L 1119 1403 
Q 1119 906 1312 657 
Q 1506 409 1894 409 
Q 2359 409 2629 706 
Q 2900 1003 2900 1516 
L 2900 3500 
L 3475 3500 
L 3475 0 
L 2900 0 
L 2900 538 
Q 2691 219 2414 64 
Q 2138 -91 1772 -91 
Q 1169 -91 856 284 
Q 544 659 544 1381 
z
M 1991 3584 
L 1991 3584 
z
" transform="scale(0.015625)"/>
       <path id="DejaVuSans-62" d="M 3116 1747 
Q 3116 2381 2855 2742 
Q 2594 3103 2138 3103 
Q 1681 3103 1420 2742 
Q 1159 2381 1159 1747 
Q 1159 1113 1420 752 
Q 1681 391 2138 391 
Q 2594 391 2855 752 
Q 3116 1113 3116 1747 
z
M 1159 2969 
Q 1341 3281 1617 3432 
Q 1894 3584 2278 3584 
Q 2916 3584 3314 3078 
Q 3713 2572 3713 1747 
Q 3713 922 3314 415 
Q 2916 -91 2278 -91 
Q 1894 -91 1617 61 
Q 1341 213 1159 525 
L 1159 0 
L 581 0 
L 581 4863 
L 1159 4863 
L 1159 2969 
z
" transform="scale(0.015625)"/>
       <path id="DejaVuSans-72" d="M 2631 2963 
Q 2534 3019 2420 3045 
Q 2306 3072 2169 3072 
Q 1681 3072 1420 2755 
Q 1159 2438 1159 1844 
L 1159 0 
L 581 0 
L 581 3500 
L 1159 3500 
L 1159 2956 
Q 1341 3275 1631 3429 
Q 1922 3584 2338 3584 
Q 2397 3584 2469 3576 
Q 2541 3569 2628 3553 
L 2631 2963 
z
" transform="scale(0.015625)"/>
      </defs>
      <use xlink:href="#DejaVuSans-4e"/>
      <use xlink:href="#DejaVuSans-6f" x="74.804688"/>
      <use xlink:href="#DejaVuSans-64" x="135.986328"/>
      <use xlink:href="#DejaVuSans-65" x="199.462891"/>
      <use xlink:href="#DejaVuSans-20" x="260.986328"/>
      <use xlink:href="#DejaVuSans-4e" x="292.773438"/>
      <use xlink:href="#DejaVuSans-75" x="367.578125"/>
      <use xlink:href="#DejaVuSans-6d" x="430.957031"/>
      <use xlink:href="#DejaVuSans-62" x="528.369141"/>
      <use xlink:href="#DejaVuSans-65" x="591.845703"/>
      <use xlink:href="#DejaVuSans-72" x="653.369141"/>
     </g>
    </g>
   </g>
   <g id="matplotlib.axis_4">
    <g id="ytick_8">
     <g id="line2d_34">
      <path d="M 320.2125 26.8 
L 558.825 26.8 
" clip-path="url(#pa0ca7e261d)" style="fill: none; stroke: #b0b0b0; stroke-width: 0.8; stroke-linecap: square"/>
     </g>
     <g id="line2d_35">
      <g>
       <use xlink:href="#m42e8e38cdc" x="320.2125" y="26.8" style="stroke: #000000; stroke-width: 0.8"/>
      </g>
     </g>
     <g id="text_21">
      <!-- 0.0 -->
      <g transform="translate(297.309375 30.599219)scale(0.1 -0.1)">
       <use xlink:href="#DejaVuSans-30"/>
       <use xlink:href="#DejaVuSans-2e" x="63.623047"/>
       <use xlink:href="#DejaVuSans-30" x="95.410156"/>
      </g>
     </g>
    </g>
    <g id="ytick_9">
     <g id="line2d_36">
      <path d="M 320.2125 87.366667 
L 558.825 87.366667 
" clip-path="url(#pa0ca7e261d)" style="fill: none; stroke: #b0b0b0; stroke-width: 0.8; stroke-linecap: square"/>
     </g>
     <g id="line2d_37">
      <g>
       <use xlink:href="#m42e8e38cdc" x="320.2125" y="87.366667" style="stroke: #000000; stroke-width: 0.8"/>
      </g>
     </g>
     <g id="text_22">
      <!-- 0.5 -->
      <g transform="translate(297.309375 91.165885)scale(0.1 -0.1)">
       <use xlink:href="#DejaVuSans-30"/>
       <use xlink:href="#DejaVuSans-2e" x="63.623047"/>
       <use xlink:href="#DejaVuSans-35" x="95.410156"/>
      </g>
     </g>
    </g>
    <g id="ytick_10">
     <g id="line2d_38">
      <path d="M 320.2125 147.933333 
L 558.825 147.933333 
" clip-path="url(#pa0ca7e261d)" style="fill: none; stroke: #b0b0b0; stroke-width: 0.8; stroke-linecap: square"/>
     </g>
     <g id="line2d_39">
      <g>
       <use xlink:href="#m42e8e38cdc" x="320.2125" y="147.933333" style="stroke: #000000; stroke-width: 0.8"/>
      </g>
     </g>
     <g id="text_23">
      <!-- 1.0 -->
      <g transform="translate(297.309375 151.732552)scale(0.1 -0.1)">
       <use xlink:href="#DejaVuSans-31"/>
       <use xlink:href="#DejaVuSans-2e" x="63.623047"/>
       <use xlink:href="#DejaVuSans-30" x="95.410156"/>
      </g>
     </g>
    </g>
    <g id="ytick_11">
     <g id="line2d_40">
      <path d="M 320.2125 208.5 
L 558.825 208.5 
" clip-path="url(#pa0ca7e261d)" style="fill: none; stroke: #b0b0b0; stroke-width: 0.8; stroke-linecap: square"/>
     </g>
     <g id="line2d_41">
      <g>
       <use xlink:href="#m42e8e38cdc" x="320.2125" y="208.5" style="stroke: #000000; stroke-width: 0.8"/>
      </g>
     </g>
     <g id="text_24">
      <!-- 1.5 -->
      <g transform="translate(297.309375 212.299219)scale(0.1 -0.1)">
       <use xlink:href="#DejaVuSans-31"/>
       <use xlink:href="#DejaVuSans-2e" x="63.623047"/>
       <use xlink:href="#DejaVuSans-35" x="95.410156"/>
      </g>
     </g>
    </g>
    <g id="ytick_12">
     <g id="line2d_42">
      <path d="M 320.2125 269.066667 
L 558.825 269.066667 
" clip-path="url(#pa0ca7e261d)" style="fill: none; stroke: #b0b0b0; stroke-width: 0.8; stroke-linecap: square"/>
     </g>
     <g id="line2d_43">
      <g>
       <use xlink:href="#m42e8e38cdc" x="320.2125" y="269.066667" style="stroke: #000000; stroke-width: 0.8"/>
      </g>
     </g>
     <g id="text_25">
      <!-- 2.0 -->
      <g transform="translate(297.309375 272.865885)scale(0.1 -0.1)">
       <use xlink:href="#DejaVuSans-32"/>
       <use xlink:href="#DejaVuSans-2e" x="63.623047"/>
       <use xlink:href="#DejaVuSans-30" x="95.410156"/>
      </g>
     </g>
    </g>
    <g id="ytick_13">
     <g id="line2d_44">
      <path d="M 320.2125 329.633333 
L 558.825 329.633333 
" clip-path="url(#pa0ca7e261d)" style="fill: none; stroke: #b0b0b0; stroke-width: 0.8; stroke-linecap: square"/>
     </g>
     <g id="line2d_45">
      <g>
       <use xlink:href="#m42e8e38cdc" x="320.2125" y="329.633333" style="stroke: #000000; stroke-width: 0.8"/>
      </g>
     </g>
     <g id="text_26">
      <!-- 2.5 -->
      <g transform="translate(297.309375 333.432552)scale(0.1 -0.1)">
       <use xlink:href="#DejaVuSans-32"/>
       <use xlink:href="#DejaVuSans-2e" x="63.623047"/>
       <use xlink:href="#DejaVuSans-35" x="95.410156"/>
      </g>
     </g>
    </g>
    <g id="ytick_14">
     <g id="line2d_46">
      <path d="M 320.2125 390.2 
L 558.825 390.2 
" clip-path="url(#pa0ca7e261d)" style="fill: none; stroke: #b0b0b0; stroke-width: 0.8; stroke-linecap: square"/>
     </g>
     <g id="line2d_47">
      <g>
       <use xlink:href="#m42e8e38cdc" x="320.2125" y="390.2" style="stroke: #000000; stroke-width: 0.8"/>
      </g>
     </g>
     <g id="text_27">
      <!-- 3.0 -->
      <g transform="translate(297.309375 393.999219)scale(0.1 -0.1)">
       <use xlink:href="#DejaVuSans-33"/>
       <use xlink:href="#DejaVuSans-2e" x="63.623047"/>
       <use xlink:href="#DejaVuSans-30" x="95.410156"/>
      </g>
     </g>
    </g>
   </g>
   <g id="line2d_48">
    <path d="M 326.177812 26.924392 
L 332.143125 27.198296 
L 338.108437 27.527512 
L 344.07375 27.923209 
L 350.039062 28.398813 
L 356.004375 28.970459 
L 361.969687 29.657542 
L 367.935 30.483373 
L 373.900312 31.475971 
L 379.865625 32.669013 
L 385.830938 34.102976 
L 391.79625 35.82651 
L 397.761562 37.898092 
L 403.726875 40.388005 
L 409.692187 43.380726 
L 415.6575 46.977793 
L 421.622812 51.301244 
L 427.588125 56.497766 
L 433.553437 62.743663 
L 439.51875 70.250846 
L 445.484062 79.274015 
L 451.449375 90.119308 
L 457.414687 103.154678 
L 463.38 118.822388 
L 469.345312 137.654007 
L 475.310625 158.944353 
L 481.275937 180.966393 
L 487.24125 202.988433 
L 493.206562 225.010473 
L 499.171875 247.032513 
L 505.137187 269.054553 
L 511.1025 291.076593 
L 517.067812 313.098633 
L 523.033125 335.120673 
L 528.998437 357.142713 
L 534.96375 379.164753 
" clip-path="url(#pa0ca7e261d)" style="fill: none; stroke: #1f77b4; stroke-width: 1.5; stroke-linecap: square"/>
    <g clip-path="url(#pa0ca7e261d)">
     <use xlink:href="#m6d40252765" x="326.177812" y="26.924392" style="fill: #1f77b4; stroke: #1f77b4"/>
     <use xlink:href="#m6d40252765" x="332.143125" y="27.198296" style="fill: #1f77b4; stroke: #1f77b4"/>
     <use xlink:href="#m6d40252765" x="338.108437" y="27.527512" style="fill: #1f77b4; stroke: #1f77b4"/>
     <use xlink:href="#m6d40252765" x="344.07375" y="27.923209" style="fill: #1f77b4; stroke: #1f77b4"/>
     <use xlink:href="#m6d40252765" x="350.039062" y="28.398813" style="fill: #1f77b4; stroke: #1f77b4"/>
     <use xlink:href="#m6d40252765" x="356.004375" y="28.970459" style="fill: #1f77b4; stroke: #1f77b4"/>
     <use xlink:href="#m6d40252765" x="361.969687" y="29.657542" style="fill: #1f77b4; stroke: #1f77b4"/>
     <use xlink:href="#m6d40252765" x="367.935" y="30.483373" style="fill: #1f77b4; stroke: #1f77b4"/>
     <use xlink:href="#m6d40252765" x="373.900312" y="31.475971" style="fill: #1f77b4; stroke: #1f77b4"/>
     <use xlink:href="#m6d40252765" x="379.865625" y="32.669013" style="fill: #1f77b4; stroke: #1f77b4"/>
     <use xlink:href="#m6d40252765" x="385.830938" y="34.102976" style="fill: #1f77b4; stroke: #1f77b4"/>
     <use xlink:href="#m6d40252765" x="391.79625" y="35.82651" style="fill: #1f77b4; stroke: #1f77b4"/>
     <use xlink:href="#m6d40252765" x="397.761562" y="37.898092" style="fill: #1f77b4; stroke: #1f77b4"/>
     <use xlink:href="#m6d40252765" x="403.726875" y="40.388005" style="fill: #1f77b4; stroke: #1f77b4"/>
     <use xlink:href="#m6d40252765" x="409.692187" y="43.380726" style="fill: #1f77b4; stroke: #1f77b4"/>
     <use xlink:href="#m6d40252765" x="415.6575" y="46.977793" style="fill: #1f77b4; stroke: #1f77b4"/>
     <use xlink:href="#m6d40252765" x="421.622812" y="51.301244" style="fill: #1f77b4; stroke: #1f77b4"/>
     <use xlink:href="#m6d40252765" x="427.588125" y="56.497766" style="fill: #1f77b4; stroke: #1f77b4"/>
     <use xlink:href="#m6d40252765" x="433.553437" y="62.743663" style="fill: #1f77b4; stroke: #1f77b4"/>
     <use xlink:href="#m6d40252765" x="439.51875" y="70.250846" style="fill: #1f77b4; stroke: #1f77b4"/>
     <use xlink:href="#m6d40252765" x="445.484062" y="79.274015" style="fill: #1f77b4; stroke: #1f77b4"/>
     <use xlink:href="#m6d40252765" x="451.449375" y="90.119308" style="fill: #1f77b4; stroke: #1f77b4"/>
     <use xlink:href="#m6d40252765" x="457.414687" y="103.154678" style="fill: #1f77b4; stroke: #1f77b4"/>
     <use xlink:href="#m6d40252765" x="463.38" y="118.822388" style="fill: #1f77b4; stroke: #1f77b4"/>
     <use xlink:href="#m6d40252765" x="469.345312" y="137.654007" style="fill: #1f77b4; stroke: #1f77b4"/>
     <use xlink:href="#m6d40252765" x="475.310625" y="158.944353" style="fill: #1f77b4; stroke: #1f77b4"/>
     <use xlink:href="#m6d40252765" x="481.275937" y="180.966393" style="fill: #1f77b4; stroke: #1f77b4"/>
     <use xlink:href="#m6d40252765" x="487.24125" y="202.988433" style="fill: #1f77b4; stroke: #1f77b4"/>
     <use xlink:href="#m6d40252765" x="493.206562" y="225.010473" style="fill: #1f77b4; stroke: #1f77b4"/>
     <use xlink:href="#m6d40252765" x="499.171875" y="247.032513" style="fill: #1f77b4; stroke: #1f77b4"/>
     <use xlink:href="#m6d40252765" x="505.137187" y="269.054553" style="fill: #1f77b4; stroke: #1f77b4"/>
     <use xlink:href="#m6d40252765" x="511.1025" y="291.076593" style="fill: #1f77b4; stroke: #1f77b4"/>
     <use xlink:href="#m6d40252765" x="517.067812" y="313.098633" style="fill: #1f77b4; stroke: #1f77b4"/>
     <use xlink:href="#m6d40252765" x="523.033125" y="335.120673" style="fill: #1f77b4; stroke: #1f77b4"/>
     <use xlink:href="#m6d40252765" x="528.998437" y="357.142713" style="fill: #1f77b4; stroke: #1f77b4"/>
     <use xlink:href="#m6d40252765" x="534.96375" y="379.164753" style="fill: #1f77b4; stroke: #1f77b4"/>
    </g>
   </g>
   <g id="patch_8">
    <path d="M 320.2125 390.2 
L 320.2125 26.8 
" style="fill: none; stroke: #000000; stroke-width: 0.8; stroke-linejoin: miter; stroke-linecap: square"/>
   </g>
   <g id="patch_9">
    <path d="M 558.825 390.2 
L 558.825 26.8 
" style="fill: none; stroke: #000000; stroke-width: 0.8; stroke-linejoin: miter; stroke-linecap: square"/>
   </g>
   <g id="patch_10">
    <path d="M 320.2125 390.2 
L 558.825 390.2 
" style="fill: none; stroke: #000000; stroke-width: 0.8; stroke-linejoin: miter; stroke-linecap: square"/>
   </g>
   <g id="patch_11">
    <path d="M 320.2125 26.8 
L 558.825 26.8 
" style="fill: none; stroke: #000000; stroke-width: 0.8; stroke-linejoin: miter; stroke-linecap: square"/>
   </g>
   <g id="text_28">
    <!-- ) Depth vs Centered Node Number -->
    <g transform="translate(335.36625 20.8)scale(0.12 -0.12)">
     <defs>
      <path id="DejaVuSans-43" d="M 4122 4306 
L 4122 3641 
Q 3803 3938 3442 4084 
Q 3081 4231 2675 4231 
Q 1875 4231 1450 3742 
Q 1025 3253 1025 2328 
Q 1025 1406 1450 917 
Q 1875 428 2675 428 
Q 3081 428 3442 575 
Q 3803 722 4122 1019 
L 4122 359 
Q 3791 134 3420 21 
Q 3050 -91 2638 -91 
Q 1578 -91 968 557 
Q 359 1206 359 2328 
Q 359 3453 968 4101 
Q 1578 4750 2638 4750 
Q 3056 4750 3426 4639 
Q 3797 4528 4122 4306 
z
" transform="scale(0.015625)"/>
      <path id="DejaVuSans-6e" d="M 3513 2113 
L 3513 0 
L 2938 0 
L 2938 2094 
Q 2938 2591 2744 2837 
Q 2550 3084 2163 3084 
Q 1697 3084 1428 2787 
Q 1159 2491 1159 1978 
L 1159 0 
L 581 0 
L 581 3500 
L 1159 3500 
L 1159 2956 
Q 1366 3272 1645 3428 
Q 1925 3584 2291 3584 
Q 2894 3584 3203 3211 
Q 3513 2838 3513 2113 
z
" transform="scale(0.015625)"/>
     </defs>
     <use xlink:href="#DejaVuSans-29"/>
     <use xlink:href="#DejaVuSans-20" x="39.013672"/>
     <use xlink:href="#DejaVuSans-44" x="70.800781"/>
     <use xlink:href="#DejaVuSans-65" x="147.802734"/>
     <use xlink:href="#DejaVuSans-70" x="209.326172"/>
     <use xlink:href="#DejaVuSans-74" x="272.802734"/>
     <use xlink:href="#DejaVuSans-68" x="312.011719"/>
     <use xlink:href="#DejaVuSans-20" x="375.390625"/>
     <use xlink:href="#DejaVuSans-76" x="407.177734"/>
     <use xlink:href="#DejaVuSans-73" x="466.357422"/>
     <use xlink:href="#DejaVuSans-20" x="518.457031"/>
     <use xlink:href="#DejaVuSans-43" x="550.244141"/>
     <use xlink:href="#DejaVuSans-65" x="620.068359"/>
     <use xlink:href="#DejaVuSans-6e" x="681.591797"/>
     <use xlink:href="#DejaVuSans-74" x="744.970703"/>
     <use xlink:href="#DejaVuSans-65" x="784.179688"/>
     <use xlink:href="#DejaVuSans-72" x="845.703125"/>
     <use xlink:href="#DejaVuSans-65" x="884.566406"/>
     <use xlink:href="#DejaVuSans-64" x="946.089844"/>
     <use xlink:href="#DejaVuSans-20" x="1009.566406"/>
     <use xlink:href="#DejaVuSans-4e" x="1041.353516"/>
     <use xlink:href="#DejaVuSans-6f" x="1116.158203"/>
     <use xlink:href="#DejaVuSans-64" x="1177.339844"/>
     <use xlink:href="#DejaVuSans-65" x="1240.816406"/>
     <use xlink:href="#DejaVuSans-20" x="1302.339844"/>
     <use xlink:href="#DejaVuSans-4e" x="1334.126953"/>
     <use xlink:href="#DejaVuSans-75" x="1408.931641"/>
     <use xlink:href="#DejaVuSans-6d" x="1472.310547"/>
     <use xlink:href="#DejaVuSans-62" x="1569.722656"/>
     <use xlink:href="#DejaVuSans-65" x="1633.199219"/>
     <use xlink:href="#DejaVuSans-72" x="1694.722656"/>
    </g>
   </g>
  </g>
 </g>
 <defs>
  <clipPath id="p04845b1603">
   <rect x="47.8" y="26.8" width="238.6125" height="363.4"/>
  </clipPath>
  <clipPath id="pa0ca7e261d">
   <rect x="320.2125" y="26.8" width="238.6125" height="363.4"/>
  </clipPath>
 </defs>
</svg>
