<?xml version="1.0" encoding="utf-8" standalone="no"?>
<!DOCTYPE svg PUBLIC "-//W3C//DTD SVG 1.1//EN"
  "http://www.w3.org/Graphics/SVG/1.1/DTD/svg11.dtd">
<svg xmlns:xlink="http://www.w3.org/1999/xlink" width="864pt" height="288pt" viewBox="0 0 864 288" xmlns="http://www.w3.org/2000/svg" version="1.1">
 <metadata>
  <rdf:RDF xmlns:dc="http://purl.org/dc/elements/1.1/" xmlns:cc="http://creativecommons.org/ns#" xmlns:rdf="http://www.w3.org/1999/02/22-rdf-syntax-ns#">
   <cc:Work>
    <dc:type rdf:resource="http://purl.org/dc/dcmitype/StillImage"/>
    <dc:date>2025-06-05T08:31:23.244870</dc:date>
    <dc:format>image/svg+xml</dc:format>
    <dc:creator>
     <cc:Agent>
      <dc:title>Matplotlib v3.9.2, https://matplotlib.org/</dc:title>
     </cc:Agent>
    </dc:creator>
   </cc:Work>
  </rdf:RDF>
 </metadata>
 <defs>
  <style type="text/css">*{stroke-linejoin: round; stroke-linecap: butt}</style>
 </defs>
 <g id="figure_1">
  <g id="patch_1">
   <path d="M 0 288 
L 864 288 
L 864 0 
L 0 0 
z
" style="fill: #ffffff"/>
  </g>
  <g id="axes_1">
   <g id="patch_2">
    <path d="M 52.49 260.12 
L 824.13 260.12 
L 824.13 25.44 
L 52.49 25.44 
z
" style="fill: #ffffff"/>
   </g>
   <g id="matplotlib.axis_1">
    <g id="xtick_1">
     <g id="line2d_1">
      <path d="M 52.49 260.12 
L 52.49 25.44 
" clip-path="url(#pa029f7a3e3)" style="fill: none; stroke: #b0b0b0; stroke-width: 0.8; stroke-linecap: square"/>
     </g>
     <g id="line2d_2">
      <defs>
       <path id="m361b34e915" d="M 0 0 
L 0 3.5 
" style="stroke: #000000; stroke-width: 0.8"/>
      </defs>
      <g>
       <use xlink:href="#m361b34e915" x="52.49" y="260.12" style="stroke: #000000; stroke-width: 0.8"/>
      </g>
     </g>
     <g id="text_1">
      <!-- 1988-01-01 -->
      <g transform="translate(23.432188 274.718437) scale(0.1 -0.1)">
       <defs>
        <path id="DejaVuSans-31" d="M 794 531 
L 1825 531 
L 1825 4091 
L 703 3866 
L 703 4441 
L 1819 4666 
L 2450 4666 
L 2450 531 
L 3481 531 
L 3481 0 
L 794 0 
L 794 531 
z
" transform="scale(0.015625)"/>
        <path id="DejaVuSans-39" d="M 703 97 
L 703 672 
Q 941 559 1184 500 
Q 1428 441 1663 441 
Q 2288 441 2617 861 
Q 2947 1281 2994 2138 
Q 2813 1869 2534 1725 
Q 2256 1581 1919 1581 
Q 1219 1581 811 2004 
Q 403 2428 403 3163 
Q 403 3881 828 4315 
Q 1253 4750 1959 4750 
Q 2769 4750 3195 4129 
Q 3622 3509 3622 2328 
Q 3622 1225 3098 567 
Q 2575 -91 1691 -91 
Q 1453 -91 1209 -44 
Q 966 3 703 97 
z
M 1959 2075 
Q 2384 2075 2632 2365 
Q 2881 2656 2881 3163 
Q 2881 3666 2632 3958 
Q 2384 4250 1959 4250 
Q 1534 4250 1286 3958 
Q 1038 3666 1038 3163 
Q 1038 2656 1286 2365 
Q 1534 2075 1959 2075 
z
" transform="scale(0.015625)"/>
        <path id="DejaVuSans-38" d="M 2034 2216 
Q 1584 2216 1326 1975 
Q 1069 1734 1069 1313 
Q 1069 891 1326 650 
Q 1584 409 2034 409 
Q 2484 409 2743 651 
Q 3003 894 3003 1313 
Q 3003 1734 2745 1975 
Q 2488 2216 2034 2216 
z
M 1403 2484 
Q 997 2584 770 2862 
Q 544 3141 544 3541 
Q 544 4100 942 4425 
Q 1341 4750 2034 4750 
Q 2731 4750 3128 4425 
Q 3525 4100 3525 3541 
Q 3525 3141 3298 2862 
Q 3072 2584 2669 2484 
Q 3125 2378 3379 2068 
Q 3634 1759 3634 1313 
Q 3634 634 3220 271 
Q 2806 -91 2034 -91 
Q 1263 -91 848 271 
Q 434 634 434 1313 
Q 434 1759 690 2068 
Q 947 2378 1403 2484 
z
M 1172 3481 
Q 1172 3119 1398 2916 
Q 1625 2713 2034 2713 
Q 2441 2713 2670 2916 
Q 2900 3119 2900 3481 
Q 2900 3844 2670 4047 
Q 2441 4250 2034 4250 
Q 1625 4250 1398 4047 
Q 1172 3844 1172 3481 
z
" transform="scale(0.015625)"/>
        <path id="DejaVuSans-2d" d="M 313 2009 
L 1997 2009 
L 1997 1497 
L 313 1497 
L 313 2009 
z
" transform="scale(0.015625)"/>
        <path id="DejaVuSans-30" d="M 2034 4250 
Q 1547 4250 1301 3770 
Q 1056 3291 1056 2328 
Q 1056 1369 1301 889 
Q 1547 409 2034 409 
Q 2525 409 2770 889 
Q 3016 1369 3016 2328 
Q 3016 3291 2770 3770 
Q 2525 4250 2034 4250 
z
M 2034 4750 
Q 2819 4750 3233 4129 
Q 3647 3509 3647 2328 
Q 3647 1150 3233 529 
Q 2819 -91 2034 -91 
Q 1250 -91 836 529 
Q 422 1150 422 2328 
Q 422 3509 836 4129 
Q 1250 4750 2034 4750 
z
" transform="scale(0.015625)"/>
       </defs>
       <use xlink:href="#DejaVuSans-31"/>
       <use xlink:href="#DejaVuSans-39" x="63.623047"/>
       <use xlink:href="#DejaVuSans-38" x="127.246094"/>
       <use xlink:href="#DejaVuSans-38" x="190.869141"/>
       <use xlink:href="#DejaVuSans-2d" x="254.492188"/>
       <use xlink:href="#DejaVuSans-30" x="290.576172"/>
       <use xlink:href="#DejaVuSans-31" x="354.199219"/>
       <use xlink:href="#DejaVuSans-2d" x="417.822266"/>
       <use xlink:href="#DejaVuSans-30" x="453.90625"/>
       <use xlink:href="#DejaVuSans-31" x="517.529297"/>
      </g>
     </g>
    </g>
    <g id="xtick_2">
     <g id="line2d_3">
      <path d="M 162.93984 260.12 
L 162.93984 25.44 
" clip-path="url(#pa029f7a3e3)" style="fill: none; stroke: #b0b0b0; stroke-width: 0.8; stroke-linecap: square"/>
     </g>
     <g id="line2d_4">
      <g>
       <use xlink:href="#m361b34e915" x="162.93984" y="260.12" style="stroke: #000000; stroke-width: 0.8"/>
      </g>
     </g>
     <g id="text_2">
      <!-- 1989-01-01 -->
      <g transform="translate(133.882027 274.718437) scale(0.1 -0.1)">
       <use xlink:href="#DejaVuSans-31"/>
       <use xlink:href="#DejaVuSans-39" x="63.623047"/>
       <use xlink:href="#DejaVuSans-38" x="127.246094"/>
       <use xlink:href="#DejaVuSans-39" x="190.869141"/>
       <use xlink:href="#DejaVuSans-2d" x="254.492188"/>
       <use xlink:href="#DejaVuSans-30" x="290.576172"/>
       <use xlink:href="#DejaVuSans-31" x="354.199219"/>
       <use xlink:href="#DejaVuSans-2d" x="417.822266"/>
       <use xlink:href="#DejaVuSans-30" x="453.90625"/>
       <use xlink:href="#DejaVuSans-31" x="517.529297"/>
      </g>
     </g>
    </g>
    <g id="xtick_3">
     <g id="line2d_5">
      <path d="M 273.087904 260.12 
L 273.087904 25.44 
" clip-path="url(#pa029f7a3e3)" style="fill: none; stroke: #b0b0b0; stroke-width: 0.8; stroke-linecap: square"/>
     </g>
     <g id="line2d_6">
      <g>
       <use xlink:href="#m361b34e915" x="273.087904" y="260.12" style="stroke: #000000; stroke-width: 0.8"/>
      </g>
     </g>
     <g id="text_3">
      <!-- 1990-01-01 -->
      <g transform="translate(244.030091 274.718437) scale(0.1 -0.1)">
       <use xlink:href="#DejaVuSans-31"/>
       <use xlink:href="#DejaVuSans-39" x="63.623047"/>
       <use xlink:href="#DejaVuSans-39" x="127.246094"/>
       <use xlink:href="#DejaVuSans-30" x="190.869141"/>
       <use xlink:href="#DejaVuSans-2d" x="254.492188"/>
       <use xlink:href="#DejaVuSans-30" x="290.576172"/>
       <use xlink:href="#DejaVuSans-31" x="354.199219"/>
       <use xlink:href="#DejaVuSans-2d" x="417.822266"/>
       <use xlink:href="#DejaVuSans-30" x="453.90625"/>
       <use xlink:href="#DejaVuSans-31" x="517.529297"/>
      </g>
     </g>
    </g>
    <g id="xtick_4">
     <g id="line2d_7">
      <path d="M 383.235968 260.12 
L 383.235968 25.44 
" clip-path="url(#pa029f7a3e3)" style="fill: none; stroke: #b0b0b0; stroke-width: 0.8; stroke-linecap: square"/>
     </g>
     <g id="line2d_8">
      <g>
       <use xlink:href="#m361b34e915" x="383.235968" y="260.12" style="stroke: #000000; stroke-width: 0.8"/>
      </g>
     </g>
     <g id="text_4">
      <!-- 1991-01-01 -->
      <g transform="translate(354.178155 274.718437) scale(0.1 -0.1)">
       <use xlink:href="#DejaVuSans-31"/>
       <use xlink:href="#DejaVuSans-39" x="63.623047"/>
       <use xlink:href="#DejaVuSans-39" x="127.246094"/>
       <use xlink:href="#DejaVuSans-31" x="190.869141"/>
       <use xlink:href="#DejaVuSans-2d" x="254.492188"/>
       <use xlink:href="#DejaVuSans-30" x="290.576172"/>
       <use xlink:href="#DejaVuSans-31" x="354.199219"/>
       <use xlink:href="#DejaVuSans-2d" x="417.822266"/>
       <use xlink:href="#DejaVuSans-30" x="453.90625"/>
       <use xlink:href="#DejaVuSans-31" x="517.529297"/>
      </g>
     </g>
    </g>
    <g id="xtick_5">
     <g id="line2d_9">
      <path d="M 493.384032 260.12 
L 493.384032 25.44 
" clip-path="url(#pa029f7a3e3)" style="fill: none; stroke: #b0b0b0; stroke-width: 0.8; stroke-linecap: square"/>
     </g>
     <g id="line2d_10">
      <g>
       <use xlink:href="#m361b34e915" x="493.384032" y="260.12" style="stroke: #000000; stroke-width: 0.8"/>
      </g>
     </g>
     <g id="text_5">
      <!-- 1992-01-01 -->
      <g transform="translate(464.32622 274.718437) scale(0.1 -0.1)">
       <defs>
        <path id="DejaVuSans-32" d="M 1228 531 
L 3431 531 
L 3431 0 
L 469 0 
L 469 531 
Q 828 903 1448 1529 
Q 2069 2156 2228 2338 
Q 2531 2678 2651 2914 
Q 2772 3150 2772 3378 
Q 2772 3750 2511 3984 
Q 2250 4219 1831 4219 
Q 1534 4219 1204 4116 
Q 875 4013 500 3803 
L 500 4441 
Q 881 4594 1212 4672 
Q 1544 4750 1819 4750 
Q 2544 4750 2975 4387 
Q 3406 4025 3406 3419 
Q 3406 3131 3298 2873 
Q 3191 2616 2906 2266 
Q 2828 2175 2409 1742 
Q 1991 1309 1228 531 
z
" transform="scale(0.015625)"/>
       </defs>
       <use xlink:href="#DejaVuSans-31"/>
       <use xlink:href="#DejaVuSans-39" x="63.623047"/>
       <use xlink:href="#DejaVuSans-39" x="127.246094"/>
       <use xlink:href="#DejaVuSans-32" x="190.869141"/>
       <use xlink:href="#DejaVuSans-2d" x="254.492188"/>
       <use xlink:href="#DejaVuSans-30" x="290.576172"/>
       <use xlink:href="#DejaVuSans-31" x="354.199219"/>
       <use xlink:href="#DejaVuSans-2d" x="417.822266"/>
       <use xlink:href="#DejaVuSans-30" x="453.90625"/>
       <use xlink:href="#DejaVuSans-31" x="517.529297"/>
      </g>
     </g>
    </g>
    <g id="xtick_6">
     <g id="line2d_11">
      <path d="M 603.833872 260.12 
L 603.833872 25.44 
" clip-path="url(#pa029f7a3e3)" style="fill: none; stroke: #b0b0b0; stroke-width: 0.8; stroke-linecap: square"/>
     </g>
     <g id="line2d_12">
      <g>
       <use xlink:href="#m361b34e915" x="603.833872" y="260.12" style="stroke: #000000; stroke-width: 0.8"/>
      </g>
     </g>
     <g id="text_6">
      <!-- 1993-01-01 -->
      <g transform="translate(574.776059 274.718437) scale(0.1 -0.1)">
       <defs>
        <path id="DejaVuSans-33" d="M 2597 2516 
Q 3050 2419 3304 2112 
Q 3559 1806 3559 1356 
Q 3559 666 3084 287 
Q 2609 -91 1734 -91 
Q 1441 -91 1130 -33 
Q 819 25 488 141 
L 488 750 
Q 750 597 1062 519 
Q 1375 441 1716 441 
Q 2309 441 2620 675 
Q 2931 909 2931 1356 
Q 2931 1769 2642 2001 
Q 2353 2234 1838 2234 
L 1294 2234 
L 1294 2753 
L 1863 2753 
Q 2328 2753 2575 2939 
Q 2822 3125 2822 3475 
Q 2822 3834 2567 4026 
Q 2313 4219 1838 4219 
Q 1578 4219 1281 4162 
Q 984 4106 628 3988 
L 628 4550 
Q 988 4650 1302 4700 
Q 1616 4750 1894 4750 
Q 2613 4750 3031 4423 
Q 3450 4097 3450 3541 
Q 3450 3153 3228 2886 
Q 3006 2619 2597 2516 
z
" transform="scale(0.015625)"/>
       </defs>
       <use xlink:href="#DejaVuSans-31"/>
       <use xlink:href="#DejaVuSans-39" x="63.623047"/>
       <use xlink:href="#DejaVuSans-39" x="127.246094"/>
       <use xlink:href="#DejaVuSans-33" x="190.869141"/>
       <use xlink:href="#DejaVuSans-2d" x="254.492188"/>
       <use xlink:href="#DejaVuSans-30" x="290.576172"/>
       <use xlink:href="#DejaVuSans-31" x="354.199219"/>
       <use xlink:href="#DejaVuSans-2d" x="417.822266"/>
       <use xlink:href="#DejaVuSans-30" x="453.90625"/>
       <use xlink:href="#DejaVuSans-31" x="517.529297"/>
      </g>
     </g>
    </g>
    <g id="xtick_7">
     <g id="line2d_13">
      <path d="M 713.981936 260.12 
L 713.981936 25.44 
" clip-path="url(#pa029f7a3e3)" style="fill: none; stroke: #b0b0b0; stroke-width: 0.8; stroke-linecap: square"/>
     </g>
     <g id="line2d_14">
      <g>
       <use xlink:href="#m361b34e915" x="713.981936" y="260.12" style="stroke: #000000; stroke-width: 0.8"/>
      </g>
     </g>
     <g id="text_7">
      <!-- 1994-01-01 -->
      <g transform="translate(684.924123 274.718437) scale(0.1 -0.1)">
       <defs>
        <path id="DejaVuSans-34" d="M 2419 4116 
L 825 1625 
L 2419 1625 
L 2419 4116 
z
M 2253 4666 
L 3047 4666 
L 3047 1625 
L 3713 1625 
L 3713 1100 
L 3047 1100 
L 3047 0 
L 2419 0 
L 2419 1100 
L 313 1100 
L 313 1709 
L 2253 4666 
z
" transform="scale(0.015625)"/>
       </defs>
       <use xlink:href="#DejaVuSans-31"/>
       <use xlink:href="#DejaVuSans-39" x="63.623047"/>
       <use xlink:href="#DejaVuSans-39" x="127.246094"/>
       <use xlink:href="#DejaVuSans-34" x="190.869141"/>
       <use xlink:href="#DejaVuSans-2d" x="254.492188"/>
       <use xlink:href="#DejaVuSans-30" x="290.576172"/>
       <use xlink:href="#DejaVuSans-31" x="354.199219"/>
       <use xlink:href="#DejaVuSans-2d" x="417.822266"/>
       <use xlink:href="#DejaVuSans-30" x="453.90625"/>
       <use xlink:href="#DejaVuSans-31" x="517.529297"/>
      </g>
     </g>
    </g>
    <g id="xtick_8">
     <g id="line2d_15">
      <path d="M 824.13 260.12 
L 824.13 25.44 
" clip-path="url(#pa029f7a3e3)" style="fill: none; stroke: #b0b0b0; stroke-width: 0.8; stroke-linecap: square"/>
     </g>
     <g id="line2d_16">
      <g>
       <use xlink:href="#m361b34e915" x="824.13" y="260.12" style="stroke: #000000; stroke-width: 0.8"/>
      </g>
     </g>
     <g id="text_8">
      <!-- 1995-01-01 -->
      <g transform="translate(795.072187 274.718437) scale(0.1 -0.1)">
       <defs>
        <path id="DejaVuSans-35" d="M 691 4666 
L 3169 4666 
L 3169 4134 
L 1269 4134 
L 1269 2991 
Q 1406 3038 1543 3061 
Q 1681 3084 1819 3084 
Q 2600 3084 3056 2656 
Q 3513 2228 3513 1497 
Q 3513 744 3044 326 
Q 2575 -91 1722 -91 
Q 1428 -91 1123 -41 
Q 819 9 494 109 
L 494 744 
Q 775 591 1075 516 
Q 1375 441 1709 441 
Q 2250 441 2565 725 
Q 2881 1009 2881 1497 
Q 2881 1984 2565 2268 
Q 2250 2553 1709 2553 
Q 1456 2553 1204 2497 
Q 953 2441 691 2322 
L 691 4666 
z
" transform="scale(0.015625)"/>
       </defs>
       <use xlink:href="#DejaVuSans-31"/>
       <use xlink:href="#DejaVuSans-39" x="63.623047"/>
       <use xlink:href="#DejaVuSans-39" x="127.246094"/>
       <use xlink:href="#DejaVuSans-35" x="190.869141"/>
       <use xlink:href="#DejaVuSans-2d" x="254.492188"/>
       <use xlink:href="#DejaVuSans-30" x="290.576172"/>
       <use xlink:href="#DejaVuSans-31" x="354.199219"/>
       <use xlink:href="#DejaVuSans-2d" x="417.822266"/>
       <use xlink:href="#DejaVuSans-30" x="453.90625"/>
       <use xlink:href="#DejaVuSans-31" x="517.529297"/>
      </g>
     </g>
    </g>
   </g>
   <g id="matplotlib.axis_2">
    <g id="ytick_1">
     <g id="line2d_17">
      <path d="M 52.49 260.12 
L 824.13 260.12 
" clip-path="url(#pa029f7a3e3)" style="fill: none; stroke: #b0b0b0; stroke-width: 0.8; stroke-linecap: square"/>
     </g>
     <g id="line2d_18">
      <defs>
       <path id="m991ebf5fa9" d="M 0 0 
L -3.5 0 
" style="stroke: #000000; stroke-width: 0.8"/>
      </defs>
      <g>
       <use xlink:href="#m991ebf5fa9" x="52.49" y="260.12" style="stroke: #000000; stroke-width: 0.8"/>
      </g>
     </g>
     <g id="text_9">
      <!-- 150 -->
      <g transform="translate(26.4025 263.919219) scale(0.1 -0.1)">
       <use xlink:href="#DejaVuSans-31"/>
       <use xlink:href="#DejaVuSans-35" x="63.623047"/>
       <use xlink:href="#DejaVuSans-30" x="127.246094"/>
      </g>
     </g>
    </g>
    <g id="ytick_2">
     <g id="line2d_19">
      <path d="M 52.49 186.7825 
L 824.13 186.7825 
" clip-path="url(#pa029f7a3e3)" style="fill: none; stroke: #b0b0b0; stroke-width: 0.8; stroke-linecap: square"/>
     </g>
     <g id="line2d_20">
      <g>
       <use xlink:href="#m991ebf5fa9" x="52.49" y="186.7825" style="stroke: #000000; stroke-width: 0.8"/>
      </g>
     </g>
     <g id="text_10">
      <!-- 200 -->
      <g transform="translate(26.4025 190.581719) scale(0.1 -0.1)">
       <use xlink:href="#DejaVuSans-32"/>
       <use xlink:href="#DejaVuSans-30" x="63.623047"/>
       <use xlink:href="#DejaVuSans-30" x="127.246094"/>
      </g>
     </g>
    </g>
    <g id="ytick_3">
     <g id="line2d_21">
      <path d="M 52.49 113.445 
L 824.13 113.445 
" clip-path="url(#pa029f7a3e3)" style="fill: none; stroke: #b0b0b0; stroke-width: 0.8; stroke-linecap: square"/>
     </g>
     <g id="line2d_22">
      <g>
       <use xlink:href="#m991ebf5fa9" x="52.49" y="113.445" style="stroke: #000000; stroke-width: 0.8"/>
      </g>
     </g>
     <g id="text_11">
      <!-- 250 -->
      <g transform="translate(26.4025 117.244219) scale(0.1 -0.1)">
       <use xlink:href="#DejaVuSans-32"/>
       <use xlink:href="#DejaVuSans-35" x="63.623047"/>
       <use xlink:href="#DejaVuSans-30" x="127.246094"/>
      </g>
     </g>
    </g>
    <g id="ytick_4">
     <g id="line2d_23">
      <path d="M 52.49 40.1075 
L 824.13 40.1075 
" clip-path="url(#pa029f7a3e3)" style="fill: none; stroke: #b0b0b0; stroke-width: 0.8; stroke-linecap: square"/>
     </g>
     <g id="line2d_24">
      <g>
       <use xlink:href="#m991ebf5fa9" x="52.49" y="40.1075" style="stroke: #000000; stroke-width: 0.8"/>
      </g>
     </g>
     <g id="text_12">
      <!-- 300 -->
      <g transform="translate(26.4025 43.906719) scale(0.1 -0.1)">
       <use xlink:href="#DejaVuSans-33"/>
       <use xlink:href="#DejaVuSans-30" x="63.623047"/>
       <use xlink:href="#DejaVuSans-30" x="127.246094"/>
      </g>
     </g>
    </g>
    <g id="text_13">
     <!-- $\Theta$ (mm) -->
     <g transform="translate(20.322813 161.98) rotate(-90) scale(0.1 -0.1)">
      <defs>
       <path id="DejaVuSans-398" d="M 1416 2750 
L 3622 2750 
L 3622 2219 
L 1416 2219 
L 1416 2750 
z
M 2522 4238 
Q 1834 4238 1431 3725 
Q 1025 3213 1025 2328 
Q 1025 1447 1429 934 
Q 1834 422 2522 422 
Q 3209 422 3613 934 
Q 4013 1447 4013 2328 
Q 4013 3213 3613 3725 
Q 3209 4238 2522 4238 
z
M 2522 4750 
Q 3503 4750 4090 4092 
Q 4678 3434 4678 2328 
Q 4678 1225 4091 569 
Q 3503 -91 2522 -91 
Q 1538 -91 950 566 
Q 359 1222 359 2328 
Q 359 3434 950 4094 
Q 1538 4750 2522 4750 
z
" transform="scale(0.015625)"/>
       <path id="DejaVuSans-20" transform="scale(0.015625)"/>
       <path id="DejaVuSans-28" d="M 1984 4856 
Q 1566 4138 1362 3434 
Q 1159 2731 1159 2009 
Q 1159 1288 1364 580 
Q 1569 -128 1984 -844 
L 1484 -844 
Q 1016 -109 783 600 
Q 550 1309 550 2009 
Q 550 2706 781 3412 
Q 1013 4119 1484 4856 
L 1984 4856 
z
" transform="scale(0.015625)"/>
       <path id="DejaVuSans-6d" d="M 3328 2828 
Q 3544 3216 3844 3400 
Q 4144 3584 4550 3584 
Q 5097 3584 5394 3201 
Q 5691 2819 5691 2113 
L 5691 0 
L 5113 0 
L 5113 2094 
Q 5113 2597 4934 2840 
Q 4756 3084 4391 3084 
Q 3944 3084 3684 2787 
Q 3425 2491 3425 1978 
L 3425 0 
L 2847 0 
L 2847 2094 
Q 2847 2600 2669 2842 
Q 2491 3084 2119 3084 
Q 1678 3084 1418 2786 
Q 1159 2488 1159 1978 
L 1159 0 
L 581 0 
L 581 3500 
L 1159 3500 
L 1159 2956 
Q 1356 3278 1631 3431 
Q 1906 3584 2284 3584 
Q 2666 3584 2933 3390 
Q 3200 3197 3328 2828 
z
" transform="scale(0.015625)"/>
       <path id="DejaVuSans-29" d="M 513 4856 
L 1013 4856 
Q 1481 4119 1714 3412 
Q 1947 2706 1947 2009 
Q 1947 1309 1714 600 
Q 1481 -109 1013 -844 
L 513 -844 
Q 928 -128 1133 580 
Q 1338 1288 1338 2009 
Q 1338 2731 1133 3434 
Q 928 4138 513 4856 
z
" transform="scale(0.015625)"/>
      </defs>
      <use xlink:href="#DejaVuSans-398" transform="translate(0 0.125)"/>
      <use xlink:href="#DejaVuSans-20" transform="translate(78.710938 0.125)"/>
      <use xlink:href="#DejaVuSans-28" transform="translate(110.498047 0.125)"/>
      <use xlink:href="#DejaVuSans-6d" transform="translate(149.511719 0.125)"/>
      <use xlink:href="#DejaVuSans-6d" transform="translate(246.923828 0.125)"/>
      <use xlink:href="#DejaVuSans-29" transform="translate(344.335938 0.125)"/>
     </g>
    </g>
   </g>
   <g id="line2d_25">
    <path d="M 52.49 187.362511 
L 52.791776 180.105251 
L 53.093551 166.636781 
L 53.697102 156.773802 
L 53.998878 143.740019 
L 54.300653 146.421296 
L 54.904204 155.678729 
L 55.20598 158.624356 
L 55.809531 168.876364 
L 56.111306 165.746046 
L 57.016633 179.127441 
L 57.921959 190.826974 
L 58.52551 194.592406 
L 58.827286 172.27981 
L 59.129061 173.089037 
L 59.732612 142.409241 
L 60.034388 140.343377 
L 60.336163 145.248101 
L 60.637939 142.012188 
L 60.939715 132.013199 
L 61.24149 129.096338 
L 61.543266 136.128533 
L 61.845041 120.526768 
L 62.146817 118.402736 
L 62.448592 124.12553 
L 62.750368 116.348729 
L 63.655694 148.954158 
L 63.95747 148.793896 
L 64.259245 149.880665 
L 64.561021 153.76247 
L 64.862796 153.94887 
L 65.164572 160.930027 
L 65.466347 164.804873 
L 65.768123 155.002405 
L 67.277 183.683006 
L 68.182327 197.236812 
L 69.087654 207.534272 
L 70.294756 217.422867 
L 71.200082 223.800459 
L 71.501858 221.525767 
L 72.105409 226.179967 
L 72.407184 227.440001 
L 73.010735 231.644704 
L 73.312511 228.859464 
L 74.217837 235.159182 
L 74.519613 231.551119 
L 74.821388 226.336762 
L 75.123164 211.127419 
L 75.424939 212.439215 
L 75.726715 207.902546 
L 76.02849 200.322976 
L 76.330266 196.615229 
L 76.632041 181.749799 
L 76.933817 183.25813 
L 77.235592 181.496319 
L 77.537368 182.01183 
L 77.839144 174.725786 
L 78.140919 177.697886 
L 78.74447 185.768452 
L 79.348021 190.880576 
L 79.649797 191.912619 
L 81.762225 219.303144 
L 82.064001 221.719028 
L 82.365776 220.067987 
L 82.667552 222.097125 
L 83.271103 228.044938 
L 83.874654 231.152274 
L 84.176429 232.391724 
L 84.478205 227.763439 
L 84.77998 226.104213 
L 85.081756 229.073905 
L 85.383531 226.781378 
L 86.288858 234.332722 
L 86.892409 237.29062 
L 87.49596 239.087791 
L 87.797736 239.15811 
L 88.099511 240.332263 
L 88.401287 241.022261 
L 88.703062 240.526393 
L 89.306613 224.830213 
L 89.608389 225.288349 
L 89.910164 220.8065 
L 90.513715 228.290331 
L 90.815491 232.481559 
L 91.419042 236.764911 
L 92.022593 239.315746 
L 92.324368 239.931469 
L 92.927919 241.781609 
L 93.833246 243.592433 
L 94.135022 243.475389 
L 94.436797 244.056939 
L 94.738573 245.039071 
L 95.945675 246.575892 
L 96.24745 246.73806 
L 96.549226 243.41062 
L 96.851001 246.567765 
L 97.152777 247.840303 
L 97.756328 241.824746 
L 98.058103 235.174142 
L 98.96343 243.870787 
L 99.265205 224.943011 
L 99.566981 224.837029 
L 100.170532 232.631397 
L 100.472307 235.055929 
L 100.774083 224.157709 
L 101.377634 231.376045 
L 101.981185 237.77896 
L 102.584736 240.572803 
L 103.188287 242.351993 
L 104.093614 244.256991 
L 105.300716 246.100336 
L 105.602491 246.484437 
L 105.904267 235.457237 
L 106.206042 235.887686 
L 106.507818 234.046214 
L 107.111369 240.154857 
L 107.413144 231.454688 
L 107.71492 233.233601 
L 108.016695 231.02446 
L 108.318471 204.175403 
L 109.223797 198.07135 
L 109.525573 198.331566 
L 109.827348 202.145155 
L 110.129124 203.482287 
L 110.430899 190.617113 
L 110.732675 193.839863 
L 111.034451 193.320688 
L 111.336226 189.708136 
L 111.939777 199.372991 
L 112.241553 185.131797 
L 113.448655 206.005437 
L 113.75043 204.189253 
L 114.052206 195.962963 
L 114.353981 196.8535 
L 114.655757 195.6276 
L 114.957532 198.938537 
L 115.259308 198.230448 
L 115.862859 204.66832 
L 116.46641 209.817107 
L 117.371736 221.744406 
L 117.975287 226.301461 
L 118.880614 231.247181 
L 119.785941 234.907251 
L 120.087716 230.914598 
L 120.691267 236.484462 
L 120.993043 236.451809 
L 121.294818 239.120496 
L 121.898369 240.548078 
L 122.200145 229.155905 
L 122.50192 211.541366 
L 122.803696 212.231986 
L 123.407247 219.671808 
L 124.010798 223.080872 
L 124.614349 229.79332 
L 124.916124 231.072643 
L 125.2179 233.012224 
L 125.519675 234.191937 
L 125.821451 218.33327 
L 126.123226 186.416582 
L 126.425002 177.700102 
L 126.726777 179.948339 
L 127.330329 186.878479 
L 129.442757 216.558348 
L 129.744533 219.233832 
L 130.046308 218.754739 
L 130.649859 225.37027 
L 131.555186 230.332374 
L 132.460512 233.932206 
L 132.762288 222.256921 
L 133.064063 223.763057 
L 133.365839 213.84516 
L 133.667614 216.113385 
L 133.96939 210.423128 
L 134.271165 197.492551 
L 134.572941 191.649917 
L 135.780043 202.42089 
L 136.081819 204.981126 
L 136.383594 201.679624 
L 136.987145 179.665762 
L 137.288921 181.056591 
L 137.590696 150.427551 
L 137.892472 141.491231 
L 138.194247 145.206317 
L 138.496023 136.360213 
L 138.797798 133.099445 
L 140.0049 169.082178 
L 140.306676 171.65557 
L 140.608451 157.955495 
L 141.212002 167.848321 
L 142.117329 182.697456 
L 142.419104 183.559553 
L 143.022655 191.261128 
L 143.626206 198.051582 
L 144.531533 208.176685 
L 145.43686 214.417309 
L 146.342186 219.552782 
L 146.643962 220.925209 
L 146.945737 220.007529 
L 147.247513 220.674473 
L 147.549288 219.368943 
L 147.851064 214.109893 
L 149.359941 219.366856 
L 149.661717 217.611262 
L 149.963492 218.560162 
L 150.265268 209.530379 
L 150.567043 209.106176 
L 152.377697 215.805776 
L 152.679472 214.923717 
L 152.981248 212.666756 
L 153.283023 191.443107 
L 154.18835 194.012415 
L 154.490125 181.147799 
L 154.791901 181.608896 
L 155.395452 185.629325 
L 158.111431 208.411758 
L 158.413207 209.674801 
L 159.016758 212.753865 
L 159.318533 213.828605 
L 160.22386 218.16742 
L 160.827411 220.725708 
L 161.129187 220.991255 
L 161.430962 219.990089 
L 163.543391 227.528898 
L 163.845166 226.631496 
L 164.146942 226.569894 
L 164.448717 223.398867 
L 165.052268 225.335046 
L 165.354044 225.861774 
L 165.655819 223.845718 
L 165.957595 224.736771 
L 166.25937 216.959929 
L 166.561146 212.725256 
L 166.862921 204.220084 
L 167.466472 206.0898 
L 167.768248 204.371441 
L 168.070023 205.173523 
L 168.371799 206.384479 
L 168.673575 205.611464 
L 168.97535 196.473784 
L 169.277126 194.405374 
L 170.182452 198.879424 
L 170.786003 202.2616 
L 171.087779 202.681352 
L 171.389554 190.128813 
L 172.294881 195.816582 
L 174.105534 209.793625 
L 174.709085 213.877954 
L 175.01086 211.207141 
L 175.312636 212.636688 
L 175.614411 213.198804 
L 175.916187 214.423805 
L 176.217962 210.752992 
L 176.519738 212.090936 
L 176.821513 207.733976 
L 177.72684 181.022168 
L 178.028616 177.086258 
L 178.330391 179.128618 
L 178.632167 178.023748 
L 178.933942 178.501872 
L 179.235718 176.837056 
L 179.537493 162.698346 
L 179.839269 139.651526 
L 180.141044 130.119716 
L 180.44282 133.794172 
L 181.046371 146.650306 
L 181.348146 142.361638 
L 182.253473 165.420526 
L 182.555248 168.249541 
L 182.857024 174.868696 
L 183.158799 175.318542 
L 183.460575 177.714693 
L 183.76235 177.699927 
L 184.064126 182.530485 
L 184.365901 185.412861 
L 184.667677 182.497862 
L 184.969452 159.762478 
L 185.271228 157.553085 
L 185.573004 150.651167 
L 185.874779 155.747806 
L 186.176555 158.895012 
L 186.47833 160.394842 
L 186.780106 153.24422 
L 187.383657 162.358336 
L 187.685432 164.151881 
L 188.892534 187.051484 
L 189.797861 201.34097 
L 190.099636 204.506767 
L 190.401412 201.007414 
L 191.004963 207.813623 
L 191.306738 204.846595 
L 191.608514 183.777391 
L 192.212065 188.835407 
L 192.51384 191.941214 
L 192.815616 183.438848 
L 193.117391 180.414338 
L 193.419167 172.263967 
L 193.720943 169.876435 
L 194.626269 184.411366 
L 194.928045 180.585097 
L 196.135147 199.753714 
L 197.040473 211.944143 
L 197.342249 206.62962 
L 197.644024 210.041485 
L 197.9458 206.354438 
L 198.549351 212.231465 
L 199.152902 216.65579 
L 199.454677 222.272912 
L 200.058228 227.653246 
L 200.963555 232.615917 
L 201.868882 236.175367 
L 202.170657 237.159035 
L 202.472433 236.943516 
L 202.774208 238.898536 
L 203.075984 239.277373 
L 203.377759 240.422051 
L 204.584861 242.879307 
L 205.188412 243.895495 
L 205.490188 244.131107 
L 205.791963 244.123691 
L 206.093739 240.299285 
L 206.395514 230.724706 
L 206.999065 240.966103 
L 207.300841 243.626789 
L 207.904392 245.529733 
L 208.507943 246.528866 
L 208.809718 242.208378 
L 209.111494 246.878295 
L 209.413269 247.702468 
L 209.715045 248.026618 
L 210.318596 242.261128 
L 210.922147 248.177841 
L 211.223923 248.703601 
L 211.525698 249.517382 
L 212.129249 250.040336 
L 213.939902 251.160761 
L 216.052331 252.192824 
L 216.354106 245.097321 
L 216.655882 249.138969 
L 216.957657 247.753405 
L 217.259433 248.849121 
L 217.561208 251.348929 
L 217.862984 252.905822 
L 218.768311 253.237643 
L 219.070086 251.528212 
L 219.371862 225.952807 
L 219.673637 212.483454 
L 221.182515 235.505739 
L 221.786066 238.822431 
L 222.389617 241.017098 
L 223.294943 243.317961 
L 224.20027 245.014032 
L 225.407372 246.696099 
L 226.010923 247.3996 
L 226.312698 246.76835 
L 226.614474 247.97637 
L 227.218025 248.576534 
L 229.028678 249.95416 
L 229.330454 250.157604 
L 229.632229 232.173142 
L 229.934005 234.034682 
L 230.23578 237.198256 
L 230.537556 242.229715 
L 231.141107 215.722512 
L 231.442882 220.326043 
L 231.744658 222.162907 
L 232.649984 234.525033 
L 233.253535 238.03265 
L 233.857086 240.279471 
L 234.158862 241.147128 
L 234.460637 236.335902 
L 234.762413 236.933522 
L 235.064189 241.707198 
L 235.365964 243.438355 
L 236.271291 245.11441 
L 238.081944 247.135268 
L 238.685495 247.683458 
L 238.98727 247.811646 
L 239.590821 248.47746 
L 239.892597 243.67278 
L 240.194372 244.433468 
L 240.496148 232.37552 
L 240.797923 232.266491 
L 241.099699 225.821216 
L 241.70325 229.33444 
L 242.608576 237.616041 
L 243.212127 240.64103 
L 243.815679 242.490619 
L 244.721005 244.411474 
L 245.626332 245.748426 
L 246.531658 246.756626 
L 246.833434 241.922264 
L 247.436985 244.05953 
L 248.040536 247.348673 
L 248.342311 247.806383 
L 248.644087 246.078974 
L 248.945862 247.690639 
L 249.247638 247.63588 
L 249.549413 248.977853 
L 250.45474 249.637431 
L 250.756515 249.722159 
L 251.360066 206.923886 
L 251.661842 200.882122 
L 251.963618 199.700708 
L 252.868944 204.859111 
L 253.17072 200.063711 
L 253.774271 183.883345 
L 254.377822 173.931359 
L 254.679597 176.760672 
L 254.981373 167.217089 
L 255.283148 148.635983 
L 255.584924 147.850873 
L 256.188475 155.815257 
L 256.49025 161.976343 
L 256.792026 155.593203 
L 257.093801 155.405647 
L 257.395577 154.297775 
L 257.697352 152.382324 
L 259.508005 185.425384 
L 261.318659 205.240841 
L 262.223985 212.326437 
L 263.431087 219.912895 
L 264.336414 224.316866 
L 265.543516 229.197034 
L 266.448842 232.276534 
L 266.750618 233.15933 
L 267.354169 211.214013 
L 267.655944 179.075662 
L 267.95772 171.694196 
L 268.259496 141.672159 
L 268.561271 125.439219 
L 268.863047 125.292095 
L 269.164822 110.816633 
L 269.466598 104.549085 
L 269.768373 62.790211 
L 270.070149 77.516532 
L 270.371924 100.951646 
L 270.6737 112.353749 
L 270.975475 101.830719 
L 271.579026 126.184021 
L 272.182577 151.26502 
L 272.786128 168.918946 
L 273.087904 175.429379 
L 273.389679 177.922383 
L 273.99323 187.36867 
L 274.295006 188.484384 
L 274.596781 183.113716 
L 274.898557 166.068598 
L 275.200332 166.732443 
L 275.502108 169.713848 
L 275.803883 170.621236 
L 276.407434 177.56496 
L 276.70921 171.338728 
L 277.312761 177.936878 
L 278.218088 188.508455 
L 278.519863 190.857958 
L 278.821639 190.27911 
L 279.123414 190.890678 
L 280.330516 157.139701 
L 280.632292 153.077713 
L 280.934067 154.59518 
L 281.235843 137.716675 
L 281.537618 141.432987 
L 282.141169 109.691963 
L 282.442945 112.487815 
L 282.74472 91.814225 
L 283.046496 86.553974 
L 283.348271 76.615881 
L 283.951822 118.429656 
L 284.253598 114.533962 
L 284.555373 104.335311 
L 285.158925 130.937863 
L 285.4607 134.70109 
L 285.762476 128.646597 
L 286.064251 139.098996 
L 286.366027 139.849839 
L 286.667802 134.318079 
L 287.271353 152.451748 
L 287.573129 158.238281 
L 288.17668 172.75995 
L 288.478455 175.376203 
L 289.383782 191.171204 
L 289.685557 190.053961 
L 289.987333 177.822609 
L 290.289108 175.800083 
L 290.590884 176.293087 
L 290.892659 170.771998 
L 292.099761 190.052497 
L 293.306864 208.418804 
L 293.910415 215.406449 
L 294.513966 220.361678 
L 294.815741 218.490702 
L 295.721068 226.93517 
L 296.324619 229.74955 
L 296.626394 214.715086 
L 298.437047 228.896807 
L 299.040598 232.219481 
L 299.945925 235.607679 
L 300.549476 237.534888 
L 300.851251 229.534475 
L 301.153027 226.521255 
L 302.058354 236.492717 
L 302.661905 239.374014 
L 303.265456 241.077264 
L 303.567231 241.769481 
L 303.869007 238.177172 
L 304.170782 238.076943 
L 304.472558 234.912509 
L 304.774333 238.131278 
L 305.076109 239.733796 
L 305.377884 237.030199 
L 305.67966 237.828336 
L 305.981435 232.064558 
L 306.283211 233.348784 
L 306.886762 238.927689 
L 307.188537 241.625605 
L 307.792088 243.883571 
L 308.093864 243.278061 
L 308.395639 245.160001 
L 309.602741 246.977322 
L 310.508068 248.04267 
L 311.71517 249.16717 
L 312.016946 249.363574 
L 312.318721 248.681309 
L 312.620497 249.871275 
L 313.224048 250.290163 
L 313.525823 247.096233 
L 313.827599 250.668936 
L 315.638252 251.660216 
L 317.75068 252.58927 
L 318.052456 251.939622 
L 318.354232 252.821743 
L 318.656007 252.93305 
L 318.957783 252.551138 
L 319.259558 253.135152 
L 319.561334 248.546049 
L 319.863109 252.190549 
L 320.164885 249.118379 
L 320.46666 249.692478 
L 320.768436 251.930543 
L 321.070211 249.987969 
L 321.371987 251.879965 
L 321.673762 251.929124 
L 322.277313 254.032882 
L 323.786191 254.411625 
L 324.087966 250.397651 
L 324.389742 253.737526 
L 324.691517 252.133216 
L 324.993293 238.429545 
L 325.295068 239.980818 
L 325.596844 239.96736 
L 326.200395 247.557925 
L 326.502171 249.719911 
L 327.105722 251.472734 
L 327.407497 251.953527 
L 327.709273 247.047721 
L 328.011048 252.16184 
L 328.312824 252.942846 
L 328.614599 250.861884 
L 328.916375 242.111588 
L 329.519926 250.940449 
L 329.821701 253.063921 
L 330.425252 253.694462 
L 331.330579 254.151242 
L 333.141232 254.737495 
L 336.158987 255.430746 
L 336.460763 248.944881 
L 336.762538 250.240861 
L 337.064314 255.330509 
L 337.366089 255.654599 
L 340.987395 256.202694 
L 341.289171 253.255367 
L 341.590946 249.118907 
L 341.892722 252.693542 
L 342.194497 251.86175 
L 342.496273 233.148076 
L 342.798048 222.063906 
L 344.005151 240.306281 
L 344.608702 243.873249 
L 345.212253 245.871919 
L 345.815804 247.21063 
L 346.419355 248.221973 
L 347.626457 249.444467 
L 347.928232 246.734095 
L 348.230008 249.485515 
L 348.531783 250.173719 
L 350.040661 251.145092 
L 351.247763 251.782187 
L 351.549539 251.645681 
L 351.851314 250.625398 
L 352.15309 252.195007 
L 352.454865 252.329601 
L 352.756641 251.353646 
L 353.058416 251.175671 
L 353.360192 251.718332 
L 353.661967 252.78523 
L 354.869069 253.233181 
L 355.170845 230.387936 
L 355.47262 221.805738 
L 355.774396 223.70984 
L 356.377947 217.590492 
L 356.679722 218.661648 
L 356.981498 218.791831 
L 357.283273 217.989472 
L 359.093926 231.045699 
L 359.697478 233.833842 
L 359.999253 234.522845 
L 360.301029 235.998258 
L 360.602804 235.873013 
L 361.206355 238.567261 
L 362.111682 240.614439 
L 362.413457 241.150957 
L 362.715233 234.295845 
L 363.017008 203.804349 
L 363.318784 200.679189 
L 363.620559 186.761444 
L 363.922335 188.953821 
L 364.22411 187.200377 
L 364.525886 189.180905 
L 365.129437 194.645004 
L 365.732988 199.556969 
L 367.241865 212.47407 
L 367.543641 211.479409 
L 367.845417 211.731394 
L 368.147192 208.60248 
L 368.448968 208.979207 
L 368.750743 204.544937 
L 369.354294 207.725716 
L 369.65607 208.344558 
L 370.259621 210.24593 
L 370.561396 206.503122 
L 370.863172 206.393057 
L 371.164947 208.137769 
L 371.466723 206.155376 
L 371.768498 192.779016 
L 372.070274 193.908245 
L 372.372049 191.319783 
L 373.277376 197.378599 
L 374.786253 208.259473 
L 375.69158 213.359864 
L 376.295131 198.593259 
L 376.596907 184.966168 
L 376.898682 185.865589 
L 377.200458 185.698845 
L 377.804009 189.624128 
L 379.614662 202.463447 
L 379.916437 193.389733 
L 380.519988 196.17915 
L 381.123539 184.389752 
L 381.72709 157.780125 
L 382.028866 160.080979 
L 382.632417 144.721259 
L 382.934192 148.130679 
L 383.235968 149.651162 
L 383.537743 128.499976 
L 383.839519 123.489163 
L 384.141294 123.425278 
L 384.44307 122.32821 
L 384.744846 128.103158 
L 385.046621 122.588128 
L 385.348397 131.087956 
L 385.650172 119.335816 
L 385.951948 95.16527 
L 386.253723 102.719748 
L 387.762601 165.085671 
L 388.064376 170.484157 
L 388.366152 173.413113 
L 388.667927 160.94547 
L 390.176805 183.796998 
L 391.082131 195.144272 
L 391.987458 203.264834 
L 392.289233 202.51971 
L 392.591009 203.107876 
L 394.099887 212.084809 
L 394.401662 211.590465 
L 394.703438 207.787717 
L 395.005213 207.870686 
L 395.306989 208.28524 
L 395.91054 210.723524 
L 396.212315 209.560028 
L 396.514091 209.964689 
L 396.815866 201.958909 
L 397.117642 202.647398 
L 398.022968 206.970394 
L 398.324744 207.598093 
L 398.626519 204.603809 
L 398.928295 198.077605 
L 399.23007 180.513852 
L 399.531846 181.826299 
L 399.833621 181.908377 
L 400.437172 185.431756 
L 400.738948 181.97816 
L 401.94605 193.69423 
L 402.247826 194.612551 
L 402.549601 184.882255 
L 402.851377 158.636978 
L 403.153152 153.465393 
L 403.454928 154.495985 
L 403.756703 158.022069 
L 404.058479 158.795756 
L 405.265581 183.53462 
L 405.567356 186.419241 
L 405.869132 178.687051 
L 406.170907 180.55201 
L 406.472683 172.692039 
L 406.774458 175.675195 
L 407.076234 176.168043 
L 407.378009 177.345036 
L 407.679785 180.268113 
L 409.188662 201.802964 
L 410.395765 215.602264 
L 410.69754 216.146153 
L 410.999316 209.413746 
L 411.301091 208.092719 
L 411.602867 193.77321 
L 411.904642 196.585254 
L 412.206418 189.335139 
L 412.508193 190.976487 
L 414.922397 220.422155 
L 415.525948 224.83273 
L 415.827724 221.272837 
L 416.129499 223.133609 
L 416.431275 226.410722 
L 416.73305 227.091412 
L 417.034826 230.441521 
L 417.638377 233.68359 
L 418.845479 237.595756 
L 419.147255 196.75925 
L 420.052581 205.102508 
L 420.354357 205.034879 
L 421.259683 217.501353 
L 422.466785 227.324034 
L 423.372112 231.975377 
L 423.673887 233.249215 
L 423.975663 231.503353 
L 424.277438 233.093645 
L 424.579214 236.095023 
L 425.182765 238.168006 
L 426.389867 241.005776 
L 427.596969 243.225104 
L 428.804071 245.008237 
L 429.105847 245.41429 
L 429.407622 244.444073 
L 429.709398 245.80455 
L 430.011173 246.491497 
L 430.312949 237.317298 
L 430.614724 240.726017 
L 430.9165 242.75761 
L 431.218275 241.22393 
L 431.520051 236.123976 
L 431.821826 237.467544 
L 432.123602 227.483363 
L 432.425377 227.890195 
L 432.727153 230.515679 
L 433.028928 218.561566 
L 433.330704 219.511213 
L 433.632479 208.808534 
L 433.934255 210.443423 
L 434.236031 209.210429 
L 435.141357 220.473648 
L 435.443133 219.229856 
L 435.744908 188.951001 
L 436.046684 180.131383 
L 436.650235 170.988781 
L 436.95201 172.700924 
L 437.555561 183.347519 
L 437.857337 186.858447 
L 438.159112 193.24151 
L 438.460888 189.930254 
L 439.064439 203.418129 
L 439.366214 198.388105 
L 439.969765 209.147097 
L 440.875092 221.668586 
L 441.478643 225.197404 
L 441.780418 228.144591 
L 442.383969 231.386781 
L 442.685745 232.539256 
L 442.987521 210.127668 
L 443.289296 208.782858 
L 444.194623 223.65687 
L 444.496398 226.903459 
L 444.798174 227.418218 
L 445.099949 216.218157 
L 446.307051 232.062703 
L 446.608827 233.737831 
L 446.910602 208.942665 
L 448.117704 227.111725 
L 448.41948 229.664804 
L 448.721255 230.597992 
L 449.023031 233.145586 
L 449.928357 236.793332 
L 450.833684 239.448979 
L 452.040786 242.147586 
L 453.247888 244.219181 
L 453.549664 244.665671 
L 454.153215 225.215015 
L 455.058541 238.182199 
L 455.360317 240.414263 
L 455.963868 242.793123 
L 456.567419 244.253496 
L 456.869194 243.985115 
L 457.17097 245.203268 
L 458.378072 246.776775 
L 459.585174 248.012591 
L 460.490501 248.78584 
L 461.094052 243.515644 
L 461.395827 244.512181 
L 461.999378 249.445777 
L 462.602929 250.061345 
L 462.904705 243.875304 
L 463.508256 249.474171 
L 463.810031 249.324485 
L 464.111807 250.832191 
L 464.413582 245.705345 
L 464.715358 248.097144 
L 465.017133 210.997413 
L 465.318909 213.488013 
L 466.224235 217.525158 
L 466.526011 217.681512 
L 466.827786 218.479165 
L 467.129562 212.460401 
L 467.431338 213.796749 
L 467.733113 212.375034 
L 468.336664 206.364231 
L 468.63844 207.931073 
L 468.940215 199.222247 
L 469.241991 200.911365 
L 469.543766 199.846014 
L 469.845542 200.917117 
L 470.147317 201.280105 
L 470.449093 200.623208 
L 473.165072 222.793669 
L 473.768623 226.247204 
L 474.070399 226.522158 
L 474.372174 207.515546 
L 474.67395 208.232596 
L 474.975725 194.655485 
L 475.277501 191.575873 
L 475.579276 179.209002 
L 475.881052 172.991774 
L 476.484603 177.415871 
L 476.786379 180.19684 
L 477.088154 178.377104 
L 477.38993 179.306989 
L 477.691705 182.907646 
L 477.993481 180.245111 
L 478.295256 183.842585 
L 478.597032 171.652538 
L 478.898807 171.5331 
L 479.804134 181.034711 
L 480.105909 179.721467 
L 480.407685 148.486774 
L 480.70946 140.201852 
L 481.011236 144.664644 
L 481.614787 158.159257 
L 482.520113 177.694073 
L 483.42544 192.28894 
L 484.028991 199.521637 
L 484.934318 207.543324 
L 485.839644 213.816421 
L 487.046746 220.475826 
L 488.253848 225.857537 
L 488.857399 217.536875 
L 489.159175 210.761246 
L 489.46095 208.02362 
L 490.064501 206.152667 
L 490.366277 205.995098 
L 490.668052 206.872132 
L 490.969828 206.695835 
L 493.685808 218.792457 
L 493.987583 219.061434 
L 494.289359 214.677722 
L 494.591134 213.771579 
L 494.89291 214.580244 
L 495.194685 214.686767 
L 495.496461 208.097818 
L 495.798236 198.826272 
L 496.100012 195.291443 
L 497.307114 200.053864 
L 498.815991 208.155915 
L 499.117767 208.709237 
L 500.324869 214.978538 
L 500.626645 215.956872 
L 500.92842 204.22916 
L 502.739073 211.483708 
L 503.040849 213.159742 
L 503.342624 213.773996 
L 504.851502 221.39872 
L 505.153277 221.605833 
L 505.455053 214.45862 
L 505.756828 203.840867 
L 506.058604 203.914511 
L 506.360379 197.259744 
L 506.662155 198.135492 
L 506.96393 193.930376 
L 507.265706 195.627362 
L 507.567481 195.195524 
L 507.869257 189.423064 
L 508.171032 189.342084 
L 509.67991 201.285974 
L 510.585237 208.316969 
L 510.887012 209.171015 
L 511.490563 213.408479 
L 511.792339 207.476678 
L 512.697665 215.572891 
L 512.999441 217.353522 
L 513.301216 218.311013 
L 513.904767 222.819472 
L 514.810094 218.305462 
L 515.111869 219.5603 
L 516.318971 227.215041 
L 516.620747 229.404748 
L 516.922522 227.830786 
L 517.224298 229.763307 
L 517.526074 230.114854 
L 517.827849 228.048987 
L 518.129625 228.193161 
L 518.4314 225.090955 
L 518.733176 223.696436 
L 519.034951 220.780799 
L 519.336727 220.477048 
L 519.638502 222.374477 
L 519.940278 218.772476 
L 520.242053 203.163948 
L 520.543829 198.58981 
L 520.845604 184.369569 
L 521.14738 186.56218 
L 521.750931 193.481082 
L 522.052706 197.403453 
L 522.354482 199.380668 
L 522.656257 190.915977 
L 522.958033 178.869722 
L 524.165135 197.120384 
L 524.46691 198.727496 
L 524.768686 201.05743 
L 525.070461 185.870146 
L 525.372237 187.067697 
L 525.674013 183.735879 
L 527.786441 214.088249 
L 528.088217 209.567161 
L 528.389992 209.814362 
L 528.691768 209.058529 
L 528.993543 194.228227 
L 529.295319 195.747776 
L 529.597094 198.379307 
L 529.89887 192.95268 
L 531.105972 214.464581 
L 531.709523 221.005394 
L 532.011298 223.54991 
L 532.313074 223.588494 
L 532.614849 213.86909 
L 533.520176 228.289848 
L 534.123727 232.282184 
L 535.029054 236.07878 
L 535.93438 238.865159 
L 536.839707 241.082448 
L 537.141482 237.734133 
L 537.443258 242.277544 
L 538.046809 243.377381 
L 538.348584 242.855608 
L 538.65036 235.623594 
L 538.952135 240.565308 
L 539.253911 241.100709 
L 539.555686 228.562828 
L 540.159237 237.447743 
L 540.461013 239.261909 
L 540.762788 236.551749 
L 541.064564 238.255547 
L 541.366339 242.805966 
L 541.668115 244.51762 
L 541.96989 244.948442 
L 542.271666 245.83897 
L 543.176993 247.160251 
L 544.384095 248.453704 
L 544.68587 248.729091 
L 544.987646 245.879264 
L 545.289421 249.241939 
L 546.798299 250.334784 
L 547.703625 250.889642 
L 548.005401 250.82342 
L 548.307176 216.658684 
L 548.608952 200.344611 
L 548.910727 196.481151 
L 549.212503 176.087326 
L 549.514278 176.898298 
L 549.816054 179.375701 
L 550.721381 194.489836 
L 551.023156 192.584853 
L 551.324932 198.187839 
L 551.626707 180.001125 
L 551.928483 185.026381 
L 552.230258 185.277756 
L 552.532034 187.247409 
L 552.833809 192.046158 
L 553.135585 193.858805 
L 554.040911 210.329712 
L 554.342687 181.375046 
L 555.851564 207.332178 
L 556.15334 210.47287 
L 556.756891 218.42497 
L 557.662217 225.637235 
L 558.567544 230.676943 
L 559.472871 234.456677 
L 559.774646 234.67585 
L 560.076422 217.676995 
L 560.378197 220.519247 
L 560.679973 221.810206 
L 560.981748 207.692439 
L 561.283524 200.957898 
L 561.585299 169.934922 
L 561.887075 173.830851 
L 562.18885 167.034028 
L 563.395952 186.057224 
L 563.999503 193.044323 
L 564.603054 183.839041 
L 564.90483 172.488523 
L 565.206605 177.744607 
L 565.508381 173.604301 
L 565.810156 167.552601 
L 566.111932 166.427505 
L 566.413707 154.599507 
L 566.715483 153.83539 
L 567.017259 158.200066 
L 567.319034 156.671941 
L 567.62081 161.120383 
L 567.922585 163.566129 
L 568.526136 175.622008 
L 568.827912 176.678162 
L 569.733238 194.581902 
L 570.035014 197.787863 
L 570.638565 205.48279 
L 570.94034 201.579565 
L 571.845667 213.596294 
L 572.147442 215.198722 
L 572.449218 213.387677 
L 573.052769 219.596467 
L 573.354544 218.451404 
L 573.65632 148.983268 
L 573.958095 138.583077 
L 574.259871 135.493227 
L 574.561646 117.313534 
L 575.165197 138.926987 
L 575.466973 151.466326 
L 576.3723 172.935683 
L 576.674075 164.245779 
L 576.975851 164.767318 
L 578.484728 190.849442 
L 579.390055 203.331945 
L 579.993606 210.002225 
L 580.295381 211.065717 
L 581.502483 221.00491 
L 581.804259 188.481919 
L 582.106034 188.034757 
L 582.40781 185.531933 
L 582.709585 187.752297 
L 583.011361 188.91558 
L 583.313136 181.689683 
L 583.614912 180.050726 
L 583.916688 181.578314 
L 584.218463 170.378504 
L 584.520239 172.683984 
L 585.12379 180.903338 
L 585.425565 182.915492 
L 585.727341 169.587586 
L 586.029116 164.142205 
L 586.934443 176.426528 
L 587.537994 185.592891 
L 587.839769 188.03683 
L 588.44332 159.623062 
L 589.046871 167.235352 
L 589.348647 165.371761 
L 589.650422 139.062142 
L 589.952198 142.73349 
L 590.253973 144.254003 
L 591.1593 157.766222 
L 591.461075 164.526078 
L 591.762851 162.060728 
L 592.064627 166.629001 
L 592.366402 168.776006 
L 592.969953 136.380669 
L 593.271729 137.545417 
L 593.573504 131.992364 
L 593.87528 117.263153 
L 594.177055 118.505208 
L 594.478831 107.599979 
L 594.780606 102.039264 
L 595.082382 100.891338 
L 595.384157 110.850019 
L 595.987708 135.405997 
L 596.289484 112.945212 
L 597.798361 158.464608 
L 598.401912 171.919806 
L 598.703688 176.020052 
L 599.005463 178.460267 
L 599.307239 175.375042 
L 599.609014 165.653453 
L 599.91079 148.271603 
L 600.212566 149.025292 
L 600.816117 159.052374 
L 602.023219 181.240756 
L 602.928545 193.121816 
L 603.532096 198.855413 
L 603.833872 200.883177 
L 604.437423 205.671207 
L 604.739198 206.143167 
L 605.040974 205.363688 
L 605.644525 184.503602 
L 605.9463 184.425101 
L 606.248076 184.662199 
L 606.549851 167.219457 
L 606.851627 141.500237 
L 607.153402 137.052468 
L 607.455178 130.85581 
L 607.756953 116.161216 
L 608.058729 121.57563 
L 608.66228 140.981717 
L 609.265831 157.63067 
L 609.869382 168.134457 
L 610.171158 168.359735 
L 610.472933 166.281542 
L 610.774709 168.85916 
L 611.37826 176.79579 
L 611.680035 175.274609 
L 611.981811 177.231512 
L 613.490688 193.834827 
L 614.69779 205.195594 
L 616.206668 215.70161 
L 617.41377 221.814152 
L 617.715546 222.676156 
L 619.224423 229.456628 
L 620.12975 232.738486 
L 620.431525 233.643328 
L 620.733301 225.752777 
L 621.035076 226.513821 
L 621.336852 226.831117 
L 621.638627 227.704673 
L 623.147505 236.377988 
L 624.052831 239.028072 
L 624.958158 241.003442 
L 625.863485 242.556113 
L 627.674138 245.12093 
L 627.975913 234.142291 
L 628.88124 239.30745 
L 629.484791 242.767828 
L 630.088342 244.509667 
L 630.390117 245.081044 
L 630.691893 238.1939 
L 630.993668 205.504997 
L 631.295444 190.694474 
L 631.597219 192.326996 
L 631.898995 184.05165 
L 632.20077 169.732545 
L 632.502546 167.355848 
L 632.804321 166.88032 
L 633.407873 161.134334 
L 633.709648 141.625494 
L 634.011424 141.623261 
L 634.313199 142.417509 
L 634.614975 146.878804 
L 635.822077 181.668584 
L 636.727403 200.67042 
L 637.330954 209.936057 
L 637.63273 211.02354 
L 637.934505 201.451469 
L 638.236281 200.858317 
L 638.538056 204.255379 
L 638.839832 202.538617 
L 640.650485 223.373188 
L 641.254036 227.628775 
L 642.159363 232.322866 
L 642.461138 233.578933 
L 642.762914 230.577709 
L 643.064689 234.563632 
L 643.366465 236.679658 
L 643.66824 235.247305 
L 643.970016 238.471407 
L 644.271791 237.762294 
L 644.573567 238.596932 
L 644.875342 238.381457 
L 645.177118 238.508219 
L 645.478893 241.18777 
L 645.780669 239.779109 
L 646.082444 201.908914 
L 647.289546 219.121366 
L 647.591322 171.324154 
L 647.893097 157.573027 
L 648.496648 167.475126 
L 648.798424 169.344116 
L 649.100199 170.278985 
L 649.401975 176.995272 
L 649.70375 177.750893 
L 650.005526 178.990219 
L 650.910853 201.364617 
L 651.514404 211.419322 
L 651.816179 215.167751 
L 652.41973 219.815119 
L 652.721506 209.897825 
L 653.023281 208.482054 
L 653.325057 207.782545 
L 653.626832 207.491179 
L 653.928608 205.221937 
L 654.230383 196.624684 
L 654.833934 204.205394 
L 655.739261 218.486332 
L 656.342812 223.931749 
L 657.248138 229.713508 
L 658.153465 233.88331 
L 659.058792 237.025416 
L 659.964118 239.497858 
L 660.869445 241.487159 
L 661.17122 234.88483 
L 661.472996 237.216565 
L 661.774771 240.975271 
L 662.076547 243.161051 
L 662.378322 230.307067 
L 662.680098 224.755235 
L 662.981873 209.807427 
L 663.283649 207.632922 
L 663.585424 212.03629 
L 663.8872 213.899473 
L 664.188975 212.476779 
L 664.490751 215.776333 
L 665.094302 224.630564 
L 665.396077 222.198545 
L 665.697853 221.853563 
L 665.999628 226.092481 
L 666.301404 228.616141 
L 666.60318 229.680819 
L 666.904955 233.491489 
L 667.206731 234.122961 
L 667.508506 236.082992 
L 668.112057 238.016977 
L 668.413833 236.611663 
L 668.715608 239.462385 
L 669.017384 235.194006 
L 669.319159 239.184802 
L 669.620935 241.461003 
L 670.224486 242.656947 
L 670.526261 242.983928 
L 670.828037 243.6546 
L 671.129812 227.124134 
L 672.336914 240.871042 
L 672.940465 243.074268 
L 673.544016 244.412855 
L 673.845792 244.940983 
L 674.147567 235.755303 
L 674.449343 233.692141 
L 675.052894 241.53547 
L 675.35467 243.824132 
L 675.958221 245.660442 
L 676.561772 246.693555 
L 677.165323 247.484693 
L 678.975976 248.983197 
L 679.579527 201.92195 
L 679.881302 197.736501 
L 680.484853 201.326797 
L 680.786629 175.95666 
L 681.088404 169.125825 
L 681.39018 171.964965 
L 681.691955 167.894204 
L 681.993731 168.798873 
L 682.597282 179.31663 
L 682.899057 181.727007 
L 683.200833 176.175666 
L 684.407935 195.970349 
L 685.011486 204.334473 
L 685.313262 202.653511 
L 685.615037 203.424124 
L 685.916813 200.489436 
L 686.520364 181.828648 
L 687.42569 168.398756 
L 687.727466 131.999023 
L 688.029241 113.564178 
L 688.331017 117.842392 
L 688.632792 110.473464 
L 688.934568 123.74587 
L 689.236343 130.156811 
L 689.538119 131.929784 
L 689.839894 82.885744 
L 690.14167 87.72338 
L 691.348772 156.171187 
L 691.952323 175.131627 
L 692.85765 192.898959 
L 693.762976 205.816994 
L 694.668303 214.458054 
L 695.573629 222.137371 
L 696.478956 225.983212 
L 696.780731 225.527612 
L 697.987833 230.047086 
L 698.289609 212.76602 
L 698.591384 208.641383 
L 698.89316 209.038854 
L 699.194935 197.916469 
L 699.496711 176.195253 
L 700.100262 178.770754 
L 700.703813 183.073934 
L 703.118017 205.008569 
L 703.721568 209.225875 
L 704.023344 207.818879 
L 704.325119 195.842424 
L 704.626895 193.816745 
L 705.230446 195.688015 
L 705.532221 189.549789 
L 705.833997 190.796297 
L 706.135772 191.221689 
L 706.437548 183.130902 
L 706.739323 179.36049 
L 707.041099 171.028475 
L 707.342874 171.83784 
L 707.64465 174.983407 
L 707.946425 174.212269 
L 708.248201 158.680671 
L 708.549977 160.122407 
L 708.851752 148.942753 
L 709.153528 148.994637 
L 709.455303 149.824875 
L 709.757079 152.625862 
L 710.058854 128.889963 
L 710.36063 121.584199 
L 710.662405 120.705965 
L 711.265956 131.413351 
L 711.567732 136.407571 
L 712.473058 162.901571 
L 712.774834 161.043659 
L 713.076609 164.378391 
L 713.378385 162.391193 
L 713.68016 152.002338 
L 713.981936 156.113861 
L 714.283711 149.284968 
L 714.585487 151.371549 
L 714.887262 148.084062 
L 715.189038 128.183865 
L 715.490813 120.533482 
L 716.39614 143.028521 
L 716.697916 136.830151 
L 716.999691 144.659465 
L 717.301467 140.220108 
L 717.603242 132.117096 
L 717.905018 134.88999 
L 718.206793 142.122926 
L 718.508569 137.490039 
L 719.11212 154.487733 
L 719.715671 167.473155 
L 720.319222 179.203321 
L 720.620997 177.914192 
L 720.922773 175.777933 
L 721.224548 176.101758 
L 721.526324 171.133845 
L 721.828099 173.859751 
L 722.129875 169.706628 
L 722.733426 173.996414 
L 723.035201 178.145473 
L 723.336977 180.651647 
L 724.242303 154.451329 
L 724.845855 160.721753 
L 725.14763 150.10592 
L 726.052957 164.428865 
L 726.354732 151.584219 
L 726.656508 155.017175 
L 727.260059 166.115058 
L 729.372487 190.721149 
L 729.674263 187.616853 
L 729.976038 174.801707 
L 730.277814 175.946755 
L 730.579589 178.70402 
L 730.881365 172.808806 
L 731.786691 180.173213 
L 732.088467 180.940449 
L 732.692018 189.81344 
L 733.295569 196.506736 
L 733.89912 204.10463 
L 734.200896 207.389401 
L 734.502671 209.459493 
L 735.106222 216.182321 
L 735.407998 217.695589 
L 735.709773 220.847287 
L 736.011549 218.519855 
L 736.313324 217.324165 
L 736.6151 219.886612 
L 736.916875 220.410348 
L 737.218651 212.155246 
L 737.520426 214.861457 
L 737.822202 214.599841 
L 738.123977 215.418293 
L 738.425753 212.643881 
L 738.727528 212.499147 
L 739.029304 212.832 
L 739.331079 212.56527 
L 739.632855 214.883318 
L 739.93463 211.55775 
L 740.236406 212.078571 
L 740.538181 213.70074 
L 740.839957 204.717815 
L 741.141732 184.691065 
L 741.443508 185.735937 
L 741.745284 188.462895 
L 742.047059 175.70775 
L 742.348835 178.575591 
L 742.65061 179.418391 
L 742.952386 181.84146 
L 743.254161 180.677026 
L 743.555937 167.531437 
L 743.857712 167.060613 
L 744.461263 178.940794 
L 744.763039 180.416932 
L 745.36659 191.923263 
L 745.668365 195.545787 
L 746.573692 211.065302 
L 747.177243 217.830469 
L 747.479018 220.489093 
L 747.780794 215.164027 
L 748.082569 217.11874 
L 748.68612 224.093816 
L 749.289671 229.270802 
L 750.194998 233.472132 
L 751.100325 236.61223 
L 751.703876 231.338292 
L 752.005651 231.269833 
L 752.307427 233.970183 
L 752.609202 237.699086 
L 752.910978 239.551761 
L 753.212753 240.524087 
L 753.816304 237.30403 
L 754.11808 240.814301 
L 754.419855 233.361322 
L 754.721631 234.694769 
L 755.023406 228.083281 
L 755.325182 224.555049 
L 755.928733 231.962028 
L 756.230508 228.631127 
L 756.532284 214.438921 
L 756.834059 212.163406 
L 757.135835 211.89667 
L 757.43761 207.726172 
L 757.739386 198.413307 
L 758.041162 196.277345 
L 760.15359 222.672568 
L 760.455366 218.234976 
L 760.757141 209.429349 
L 761.662468 222.870624 
L 761.964243 227.068569 
L 762.567794 231.180864 
L 763.473121 235.20639 
L 764.378447 238.162902 
L 765.283774 240.492773 
L 765.585549 241.110724 
L 765.887325 239.764338 
L 766.189101 242.381653 
L 766.490876 242.932425 
L 766.792652 241.67737 
L 767.094427 243.939357 
L 768.301529 245.643405 
L 769.206856 246.737068 
L 769.508631 246.785112 
L 770.112182 247.624302 
L 770.715733 242.142263 
L 771.319284 248.746263 
L 772.828162 249.913503 
L 774.638815 251.033757 
L 775.544142 251.521269 
L 775.845917 251.021454 
L 776.147693 251.819381 
L 776.449468 251.938614 
L 776.751244 249.046097 
L 777.053019 252.17081 
L 777.65657 252.480333 
L 777.958346 249.143715 
L 778.260121 251.751127 
L 778.863672 244.296652 
L 779.467223 251.350434 
L 779.768999 252.559218 
L 780.070774 252.923963 
L 780.674325 253.243552 
L 780.976101 218.43356 
L 781.277876 219.229433 
L 782.484978 234.34818 
L 782.786754 232.273457 
L 783.08853 235.984716 
L 783.390305 236.590885 
L 783.692081 239.91813 
L 784.295632 241.99086 
L 784.597407 242.759273 
L 784.899183 242.739326 
L 785.200958 240.353654 
L 785.502734 240.092023 
L 785.804509 240.60393 
L 786.106285 244.273287 
L 786.40806 245.561669 
L 786.709836 246.159111 
L 787.011611 245.427765 
L 787.313387 226.722808 
L 787.615162 223.323593 
L 787.916938 225.883664 
L 788.218713 224.158861 
L 788.822264 229.232823 
L 789.12404 230.026343 
L 789.425815 225.505393 
L 789.727591 225.393408 
L 790.029366 221.392971 
L 790.331142 219.491673 
L 790.632917 216.796922 
L 790.934693 218.175332 
L 791.236469 204.962345 
L 791.84002 150.277094 
L 792.141795 153.215462 
L 792.443571 157.413991 
L 793.047122 148.495799 
L 794.555999 182.938374 
L 796.064877 209.668707 
L 796.668428 216.015768 
L 796.970203 215.075793 
L 797.573754 219.775546 
L 798.479081 226.399289 
L 799.384408 230.646575 
L 800.289734 233.895826 
L 801.496836 237.271777 
L 801.798612 237.9932 
L 802.100387 222.782177 
L 802.402163 222.067339 
L 803.005714 192.253221 
L 803.307489 193.440102 
L 803.609265 179.887987 
L 803.91104 180.304807 
L 804.212816 180.43673 
L 804.514591 181.711283 
L 804.816367 168.431391 
L 805.118142 160.766207 
L 805.419918 125.505524 
L 805.721693 125.286537 
L 806.325244 138.839187 
L 806.62702 139.718596 
L 806.928795 123.849083 
L 807.834122 147.108465 
L 808.135898 136.538517 
L 808.437673 137.428029 
L 808.739449 144.512274 
L 809.041224 144.895996 
L 809.644775 155.86857 
L 810.550102 171.650051 
L 810.851877 164.08076 
L 811.153653 162.152453 
L 812.964306 187.934016 
L 813.869632 198.587585 
L 814.774959 206.900652 
L 815.076734 208.232404 
L 815.37851 206.265336 
L 815.680285 192.672581 
L 815.982061 193.384942 
L 816.585612 160.295892 
L 817.189163 132.693179 
L 817.490939 137.487266 
L 818.999816 171.981643 
L 819.301592 177.137982 
L 819.603367 178.914973 
L 819.905143 167.538203 
L 822.017571 193.230021 
L 822.319347 190.42811 
L 823.224673 156.959099 
L 823.828224 140.744291 
L 824.13 145.255119 
L 824.13 145.255119 
" clip-path="url(#pa029f7a3e3)" style="fill: none; stroke: #1f77b4; stroke-width: 1.5; stroke-linecap: square"/>
   </g>
   <g id="line2d_26">
    <defs>
     <path id="m8d4d991e32" d="M 0 3 
C 0.795609 3 1.55874 2.683901 2.12132 2.12132 
C 2.683901 1.55874 3 0.795609 3 0 
C 3 -0.795609 2.683901 -1.55874 2.12132 -2.12132 
C 1.55874 -2.683901 0.795609 -3 0 -3 
C -0.795609 -3 -1.55874 -2.683901 -2.12132 -2.12132 
C -2.683901 -1.55874 -3 -0.795609 -3 0 
C -3 0.795609 -2.683901 1.55874 -2.12132 2.12132 
C -1.55874 2.683901 -0.795609 3 0 3 
z
" style="stroke: #ff7f0e"/>
    </defs>
    <g clip-path="url(#pa029f7a3e3)">
     <use xlink:href="#m8d4d991e32" x="182.253473" y="129.409494" style="fill: #ff7f0e; stroke: #ff7f0e"/>
     <use xlink:href="#m8d4d991e32" x="184.064126" y="150.101012" style="fill: #ff7f0e; stroke: #ff7f0e"/>
     <use xlink:href="#m8d4d991e32" x="188.892534" y="142.316482" style="fill: #ff7f0e; stroke: #ff7f0e"/>
     <use xlink:href="#m8d4d991e32" x="193.117391" y="162.642024" style="fill: #ff7f0e; stroke: #ff7f0e"/>
     <use xlink:href="#m8d4d991e32" x="197.040473" y="163.467784" style="fill: #ff7f0e; stroke: #ff7f0e"/>
     <use xlink:href="#m8d4d991e32" x="197.342249" y="182.137764" style="fill: #ff7f0e; stroke: #ff7f0e"/>
     <use xlink:href="#m8d4d991e32" x="201.567106" y="203.915642" style="fill: #ff7f0e; stroke: #ff7f0e"/>
     <use xlink:href="#m8d4d991e32" x="206.69729" y="227.766921" style="fill: #ff7f0e; stroke: #ff7f0e"/>
     <use xlink:href="#m8d4d991e32" x="213.034576" y="237.717925" style="fill: #ff7f0e; stroke: #ff7f0e"/>
     <use xlink:href="#m8d4d991e32" x="219.673637" y="237.814763" style="fill: #ff7f0e; stroke: #ff7f0e"/>
     <use xlink:href="#m8d4d991e32" x="223.294943" y="232.209471" style="fill: #ff7f0e; stroke: #ff7f0e"/>
     <use xlink:href="#m8d4d991e32" x="229.028678" y="239.982798" style="fill: #ff7f0e; stroke: #ff7f0e"/>
     <use xlink:href="#m8d4d991e32" x="234.460637" y="234.237828" style="fill: #ff7f0e; stroke: #ff7f0e"/>
     <use xlink:href="#m8d4d991e32" x="241.401474" y="238.72501" style="fill: #ff7f0e; stroke: #ff7f0e"/>
     <use xlink:href="#m8d4d991e32" x="245.324556" y="235.920435" style="fill: #ff7f0e; stroke: #ff7f0e"/>
     <use xlink:href="#m8d4d991e32" x="250.152964" y="240.790376" style="fill: #ff7f0e; stroke: #ff7f0e"/>
     <use xlink:href="#m8d4d991e32" x="253.17072" y="234.356293" style="fill: #ff7f0e; stroke: #ff7f0e"/>
     <use xlink:href="#m8d4d991e32" x="254.981373" y="199.751593" style="fill: #ff7f0e; stroke: #ff7f0e"/>
     <use xlink:href="#m8d4d991e32" x="256.792026" y="173.362036" style="fill: #ff7f0e; stroke: #ff7f0e"/>
     <use xlink:href="#m8d4d991e32" x="259.20623" y="140.685852" style="fill: #ff7f0e; stroke: #ff7f0e"/>
     <use xlink:href="#m8d4d991e32" x="261.92221" y="163.813627" style="fill: #ff7f0e; stroke: #ff7f0e"/>
     <use xlink:href="#m8d4d991e32" x="264.034638" y="178.33313" style="fill: #ff7f0e; stroke: #ff7f0e"/>
     <use xlink:href="#m8d4d991e32" x="264.336414" y="197.00311" style="fill: #ff7f0e; stroke: #ff7f0e"/>
     <use xlink:href="#m8d4d991e32" x="267.95772" y="207.57922" style="fill: #ff7f0e; stroke: #ff7f0e"/>
     <use xlink:href="#m8d4d991e32" x="269.768373" y="190.77409" style="fill: #ff7f0e; stroke: #ff7f0e"/>
     <use xlink:href="#m8d4d991e32" x="270.070149" y="144.304846" style="fill: #ff7f0e; stroke: #ff7f0e"/>
     <use xlink:href="#m8d4d991e32" x="271.880802" y="64.641895" style="fill: #ff7f0e; stroke: #ff7f0e"/>
     <use xlink:href="#m8d4d991e32" x="271.880802" y="45.452647" style="fill: #ff7f0e; stroke: #ff7f0e"/>
     <use xlink:href="#m8d4d991e32" x="271.880802" y="107.376573" style="fill: #ff7f0e; stroke: #ff7f0e"/>
     <use xlink:href="#m8d4d991e32" x="272.484353" y="87.460735" style="fill: #ff7f0e; stroke: #ff7f0e"/>
     <use xlink:href="#m8d4d991e32" x="274.295006" y="119.198763" style="fill: #ff7f0e; stroke: #ff7f0e"/>
     <use xlink:href="#m8d4d991e32" x="276.105659" y="141.809014" style="fill: #ff7f0e; stroke: #ff7f0e"/>
     <use xlink:href="#m8d4d991e32" x="280.632292" y="151.243229" style="fill: #ff7f0e; stroke: #ff7f0e"/>
     <use xlink:href="#m8d4d991e32" x="282.141169" y="127.281062" style="fill: #ff7f0e; stroke: #ff7f0e"/>
     <use xlink:href="#m8d4d991e32" x="282.74472" y="111.099384" style="fill: #ff7f0e; stroke: #ff7f0e"/>
     <use xlink:href="#m8d4d991e32" x="285.158925" y="70.555063" style="fill: #ff7f0e; stroke: #ff7f0e"/>
     <use xlink:href="#m8d4d991e32" x="285.158925" y="50.52113" style="fill: #ff7f0e; stroke: #ff7f0e"/>
     <use xlink:href="#m8d4d991e32" x="286.366027" y="86.823837" style="fill: #ff7f0e; stroke: #ff7f0e"/>
     <use xlink:href="#m8d4d991e32" x="286.366027" y="101.967712" style="fill: #ff7f0e; stroke: #ff7f0e"/>
     <use xlink:href="#m8d4d991e32" x="289.383782" y="106.113413" style="fill: #ff7f0e; stroke: #ff7f0e"/>
     <use xlink:href="#m8d4d991e32" x="289.383782" y="122.294539" style="fill: #ff7f0e; stroke: #ff7f0e"/>
     <use xlink:href="#m8d4d991e32" x="289.987333" y="137.230413" style="fill: #ff7f0e; stroke: #ff7f0e"/>
     <use xlink:href="#m8d4d991e32" x="292.099761" y="153.09816" style="fill: #ff7f0e; stroke: #ff7f0e"/>
     <use xlink:href="#m8d4d991e32" x="295.117517" y="177.055368" style="fill: #ff7f0e; stroke: #ff7f0e"/>
     <use xlink:href="#m8d4d991e32" x="297.229945" y="204.436719" style="fill: #ff7f0e; stroke: #ff7f0e"/>
     <use xlink:href="#m8d4d991e32" x="301.756578" y="222.106419" style="fill: #ff7f0e; stroke: #ff7f0e"/>
     <use xlink:href="#m8d4d991e32" x="306.584986" y="230.357984" style="fill: #ff7f0e; stroke: #ff7f0e"/>
     <use xlink:href="#m8d4d991e32" x="312.922272" y="239.479187" style="fill: #ff7f0e; stroke: #ff7f0e"/>
     <use xlink:href="#m8d4d991e32" x="318.957783" y="242.376879" style="fill: #ff7f0e; stroke: #ff7f0e"/>
     <use xlink:href="#m8d4d991e32" x="325.898619" y="242.162266" style="fill: #ff7f0e; stroke: #ff7f0e"/>
     <use xlink:href="#m8d4d991e32" x="331.330579" y="244.230709" style="fill: #ff7f0e; stroke: #ff7f0e"/>
     <use xlink:href="#m8d4d991e32" x="337.667865" y="246.50605" style="fill: #ff7f0e; stroke: #ff7f0e"/>
     <use xlink:href="#m8d4d991e32" x="344.005151" y="243.595134" style="fill: #ff7f0e; stroke: #ff7f0e"/>
     <use xlink:href="#m8d4d991e32" x="345.815804" y="236.498238" style="fill: #ff7f0e; stroke: #ff7f0e"/>
     <use xlink:href="#m8d4d991e32" x="352.15309" y="245.453371" style="fill: #ff7f0e; stroke: #ff7f0e"/>
     <use xlink:href="#m8d4d991e32" x="358.1886" y="231.340442" style="fill: #ff7f0e; stroke: #ff7f0e"/>
     <use xlink:href="#m8d4d991e32" x="363.620559" y="230.816" style="fill: #ff7f0e; stroke: #ff7f0e"/>
     <use xlink:href="#m8d4d991e32" x="365.129437" y="213.077343" style="fill: #ff7f0e; stroke: #ff7f0e"/>
     <use xlink:href="#m8d4d991e32" x="367.845417" y="198.345614" style="fill: #ff7f0e; stroke: #ff7f0e"/>
     <use xlink:href="#m8d4d991e32" x="374.182702" y="196.679399" style="fill: #ff7f0e; stroke: #ff7f0e"/>
     <use xlink:href="#m8d4d991e32" x="377.804009" y="198.127694" style="fill: #ff7f0e; stroke: #ff7f0e"/>
     <use xlink:href="#m8d4d991e32" x="379.312886" y="182.567266" style="fill: #ff7f0e; stroke: #ff7f0e"/>
     <use xlink:href="#m8d4d991e32" x="382.934192" y="157.047017" style="fill: #ff7f0e; stroke: #ff7f0e"/>
     <use xlink:href="#m8d4d991e32" x="382.934192" y="175.717548" style="fill: #ff7f0e; stroke: #ff7f0e"/>
     <use xlink:href="#m8d4d991e32" x="383.537743" y="134.226745" style="fill: #ff7f0e; stroke: #ff7f0e"/>
     <use xlink:href="#m8d4d991e32" x="386.253723" y="113.063872" style="fill: #ff7f0e; stroke: #ff7f0e"/>
     <use xlink:href="#m8d4d991e32" x="386.857274" y="91.695936" style="fill: #ff7f0e; stroke: #ff7f0e"/>
     <use xlink:href="#m8d4d991e32" x="387.460825" y="81.115234" style="fill: #ff7f0e; stroke: #ff7f0e"/>
     <use xlink:href="#m8d4d991e32" x="388.064376" y="68.667662" style="fill: #ff7f0e; stroke: #ff7f0e"/>
     <use xlink:href="#m8d4d991e32" x="390.176805" y="110.985328" style="fill: #ff7f0e; stroke: #ff7f0e"/>
     <use xlink:href="#m8d4d991e32" x="390.176805" y="130.90056" style="fill: #ff7f0e; stroke: #ff7f0e"/>
     <use xlink:href="#m8d4d991e32" x="391.685682" y="146.457683" style="fill: #ff7f0e; stroke: #ff7f0e"/>
     <use xlink:href="#m8d4d991e32" x="392.892785" y="164.919477" style="fill: #ff7f0e; stroke: #ff7f0e"/>
     <use xlink:href="#m8d4d991e32" x="396.815866" y="173.835618" style="fill: #ff7f0e; stroke: #ff7f0e"/>
     <use xlink:href="#m8d4d991e32" x="396.815866" y="190.016744" style="fill: #ff7f0e; stroke: #ff7f0e"/>
     <use xlink:href="#m8d4d991e32" x="401.040724" y="184.411177" style="fill: #ff7f0e; stroke: #ff7f0e"/>
     <use xlink:href="#m8d4d991e32" x="404.66203" y="166.566591" style="fill: #ff7f0e; stroke: #ff7f0e"/>
     <use xlink:href="#m8d4d991e32" x="406.170907" y="147.064606" style="fill: #ff7f0e; stroke: #ff7f0e"/>
     <use xlink:href="#m8d4d991e32" x="410.395765" y="165.730729" style="fill: #ff7f0e; stroke: #ff7f0e"/>
     <use xlink:href="#m8d4d991e32" x="414.318846" y="182.218898" style="fill: #ff7f0e; stroke: #ff7f0e"/>
     <use xlink:href="#m8d4d991e32" x="414.318846" y="195.599445" style="fill: #ff7f0e; stroke: #ff7f0e"/>
     <use xlink:href="#m8d4d991e32" x="419.750806" y="213.517479" style="fill: #ff7f0e; stroke: #ff7f0e"/>
     <use xlink:href="#m8d4d991e32" x="421.863234" y="189.990296" style="fill: #ff7f0e; stroke: #ff7f0e"/>
     <use xlink:href="#m8d4d991e32" x="423.975663" y="208.658623" style="fill: #ff7f0e; stroke: #ff7f0e"/>
     <use xlink:href="#m8d4d991e32" x="426.993418" y="226.392321" style="fill: #ff7f0e; stroke: #ff7f0e"/>
     <use xlink:href="#m8d4d991e32" x="432.123602" y="228.150139" style="fill: #ff7f0e; stroke: #ff7f0e"/>
     <use xlink:href="#m8d4d991e32" x="437.857337" y="211.00868" style="fill: #ff7f0e; stroke: #ff7f0e"/>
     <use xlink:href="#m8d4d991e32" x="439.66799" y="187.481883" style="fill: #ff7f0e; stroke: #ff7f0e"/>
     <use xlink:href="#m8d4d991e32" x="444.798174" y="204.280126" style="fill: #ff7f0e; stroke: #ff7f0e"/>
     <use xlink:href="#m8d4d991e32" x="448.721255" y="225.228202" style="fill: #ff7f0e; stroke: #ff7f0e"/>
     <use xlink:href="#m8d4d991e32" x="455.058541" y="232.067452" style="fill: #ff7f0e; stroke: #ff7f0e"/>
     <use xlink:href="#m8d4d991e32" x="461.395827" y="239.321601" style="fill: #ff7f0e; stroke: #ff7f0e"/>
     <use xlink:href="#m8d4d991e32" x="465.92246" y="238.175666" style="fill: #ff7f0e; stroke: #ff7f0e"/>
     <use xlink:href="#m8d4d991e32" x="468.034889" y="221.058809" style="fill: #ff7f0e; stroke: #ff7f0e"/>
     <use xlink:href="#m8d4d991e32" x="470.750868" y="204.874927" style="fill: #ff7f0e; stroke: #ff7f0e"/>
     <use xlink:href="#m8d4d991e32" x="475.277501" y="211.715829" style="fill: #ff7f0e; stroke: #ff7f0e"/>
     <use xlink:href="#m8d4d991e32" x="477.38993" y="188.064287" style="fill: #ff7f0e; stroke: #ff7f0e"/>
     <use xlink:href="#m8d4d991e32" x="479.502358" y="157.359432" style="fill: #ff7f0e; stroke: #ff7f0e"/>
     <use xlink:href="#m8d4d991e32" x="482.520113" y="128.313079" style="fill: #ff7f0e; stroke: #ff7f0e"/>
     <use xlink:href="#m8d4d991e32" x="484.330767" y="145.114903" style="fill: #ff7f0e; stroke: #ff7f0e"/>
     <use xlink:href="#m8d4d991e32" x="485.537869" y="163.161797" style="fill: #ff7f0e; stroke: #ff7f0e"/>
     <use xlink:href="#m8d4d991e32" x="487.348522" y="180.585605" style="fill: #ff7f0e; stroke: #ff7f0e"/>
     <use xlink:href="#m8d4d991e32" x="489.46095" y="196.557078" style="fill: #ff7f0e; stroke: #ff7f0e"/>
     <use xlink:href="#m8d4d991e32" x="495.496461" y="196.343015" style="fill: #ff7f0e; stroke: #ff7f0e"/>
     <use xlink:href="#m8d4d991e32" x="501.833747" y="195.506602" style="fill: #ff7f0e; stroke: #ff7f0e"/>
     <use xlink:href="#m8d4d991e32" x="506.662155" y="201.310253" style="fill: #ff7f0e; stroke: #ff7f0e"/>
     <use xlink:href="#m8d4d991e32" x="511.188788" y="189.065724" style="fill: #ff7f0e; stroke: #ff7f0e"/>
     <use xlink:href="#m8d4d991e32" x="517.526074" y="209.389245" style="fill: #ff7f0e; stroke: #ff7f0e"/>
     <use xlink:href="#m8d4d991e32" x="521.750931" y="206.687983" style="fill: #ff7f0e; stroke: #ff7f0e"/>
     <use xlink:href="#m8d4d991e32" x="524.165135" y="190.504101" style="fill: #ff7f0e; stroke: #ff7f0e"/>
     <use xlink:href="#m8d4d991e32" x="530.200645" y="181.370041" style="fill: #ff7f0e; stroke: #ff7f0e"/>
     <use xlink:href="#m8d4d991e32" x="532.614849" y="199.208199" style="fill: #ff7f0e; stroke: #ff7f0e"/>
     <use xlink:href="#m8d4d991e32" x="536.236156" y="217.252522" style="fill: #ff7f0e; stroke: #ff7f0e"/>
     <use xlink:href="#m8d4d991e32" x="540.461013" y="229.072783" style="fill: #ff7f0e; stroke: #ff7f0e"/>
     <use xlink:href="#m8d4d991e32" x="547.100074" y="237.423063" style="fill: #ff7f0e; stroke: #ff7f0e"/>
     <use xlink:href="#m8d4d991e32" x="550.419605" y="233.418772" style="fill: #ff7f0e; stroke: #ff7f0e"/>
     <use xlink:href="#m8d4d991e32" x="553.135585" y="192.962833" style="fill: #ff7f0e; stroke: #ff7f0e"/>
     <use xlink:href="#m8d4d991e32" x="558.265768" y="185.489478" style="fill: #ff7f0e; stroke: #ff7f0e"/>
     <use xlink:href="#m8d4d991e32" x="560.378197" y="204.655355" style="fill: #ff7f0e; stroke: #ff7f0e"/>
     <use xlink:href="#m8d4d991e32" x="563.999503" y="197.308086" style="fill: #ff7f0e; stroke: #ff7f0e"/>
     <use xlink:href="#m8d4d991e32" x="567.017259" y="160.58607" style="fill: #ff7f0e; stroke: #ff7f0e"/>
     <use xlink:href="#m8d4d991e32" x="569.129687" y="147.887906" style="fill: #ff7f0e; stroke: #ff7f0e"/>
     <use xlink:href="#m8d4d991e32" x="573.65632" y="166.446867" style="fill: #ff7f0e; stroke: #ff7f0e"/>
     <use xlink:href="#m8d4d991e32" x="574.863422" y="200.408271" style="fill: #ff7f0e; stroke: #ff7f0e"/>
     <use xlink:href="#m8d4d991e32" x="576.975851" y="118.504562" style="fill: #ff7f0e; stroke: #ff7f0e"/>
     <use xlink:href="#m8d4d991e32" x="577.881177" y="142.215144" style="fill: #ff7f0e; stroke: #ff7f0e"/>
     <use xlink:href="#m8d4d991e32" x="582.709585" y="173.846362" style="fill: #ff7f0e; stroke: #ff7f0e"/>
     <use xlink:href="#m8d4d991e32" x="582.709585" y="195.006297" style="fill: #ff7f0e; stroke: #ff7f0e"/>
     <use xlink:href="#m8d4d991e32" x="583.011361" y="157.146334" style="fill: #ff7f0e; stroke: #ff7f0e"/>
     <use xlink:href="#m8d4d991e32" x="588.44332" y="147.494108" style="fill: #ff7f0e; stroke: #ff7f0e"/>
     <use xlink:href="#m8d4d991e32" x="592.969953" y="125.499597" style="fill: #ff7f0e; stroke: #ff7f0e"/>
     <use xlink:href="#m8d4d991e32" x="597.19481" y="68.446162" style="fill: #ff7f0e; stroke: #ff7f0e"/>
     <use xlink:href="#m8d4d991e32" x="597.19481" y="81.982296" style="fill: #ff7f0e; stroke: #ff7f0e"/>
     <use xlink:href="#m8d4d991e32" x="597.496586" y="103.090185" style="fill: #ff7f0e; stroke: #ff7f0e"/>
     <use xlink:href="#m8d4d991e32" x="600.514341" y="122.462704" style="fill: #ff7f0e; stroke: #ff7f0e"/>
     <use xlink:href="#m8d4d991e32" x="602.928545" y="139.076941" style="fill: #ff7f0e; stroke: #ff7f0e"/>
     <use xlink:href="#m8d4d991e32" x="605.644525" y="162.41235" style="fill: #ff7f0e; stroke: #ff7f0e"/>
     <use xlink:href="#m8d4d991e32" x="607.455178" y="179.213623" style="fill: #ff7f0e; stroke: #ff7f0e"/>
     <use xlink:href="#m8d4d991e32" x="609.869382" y="108.618717" style="fill: #ff7f0e; stroke: #ff7f0e"/>
     <use xlink:href="#m8d4d991e32" x="611.076484" y="135.645431" style="fill: #ff7f0e; stroke: #ff7f0e"/>
     <use xlink:href="#m8d4d991e32" x="614.094239" y="149.748696" style="fill: #ff7f0e; stroke: #ff7f0e"/>
     <use xlink:href="#m8d4d991e32" x="615.301341" y="163.646583" style="fill: #ff7f0e; stroke: #ff7f0e"/>
     <use xlink:href="#m8d4d991e32" x="617.41377" y="178.580803" style="fill: #ff7f0e; stroke: #ff7f0e"/>
     <use xlink:href="#m8d4d991e32" x="618.017321" y="194.553928" style="fill: #ff7f0e; stroke: #ff7f0e"/>
     <use xlink:href="#m8d4d991e32" x="621.638627" y="209.901396" style="fill: #ff7f0e; stroke: #ff7f0e"/>
     <use xlink:href="#m8d4d991e32" x="627.975913" y="227.320613" style="fill: #ff7f0e; stroke: #ff7f0e"/>
     <use xlink:href="#m8d4d991e32" x="632.502546" y="228.560356" style="fill: #ff7f0e; stroke: #ff7f0e"/>
     <use xlink:href="#m8d4d991e32" x="633.709648" y="210.303624" style="fill: #ff7f0e; stroke: #ff7f0e"/>
     <use xlink:href="#m8d4d991e32" x="634.011424" y="189.143139" style="fill: #ff7f0e; stroke: #ff7f0e"/>
     <use xlink:href="#m8d4d991e32" x="636.123852" y="136.116518" style="fill: #ff7f0e; stroke: #ff7f0e"/>
     <use xlink:href="#m8d4d991e32" x="637.330954" y="169.535776" style="fill: #ff7f0e; stroke: #ff7f0e"/>
     <use xlink:href="#m8d4d991e32" x="637.934505" y="155.117059" style="fill: #ff7f0e; stroke: #ff7f0e"/>
     <use xlink:href="#m8d4d991e32" x="641.254036" y="179.800159" style="fill: #ff7f0e; stroke: #ff7f0e"/>
     <use xlink:href="#m8d4d991e32" x="642.461138" y="199.921557" style="fill: #ff7f0e; stroke: #ff7f0e"/>
     <use xlink:href="#m8d4d991e32" x="646.987771" y="219.002213" style="fill: #ff7f0e; stroke: #ff7f0e"/>
     <use xlink:href="#m8d4d991e32" x="650.910853" y="184.893189" style="fill: #ff7f0e; stroke: #ff7f0e"/>
     <use xlink:href="#m8d4d991e32" x="651.816179" y="164.230364" style="fill: #ff7f0e; stroke: #ff7f0e"/>
     <use xlink:href="#m8d4d991e32" x="655.739261" y="189.617988" style="fill: #ff7f0e; stroke: #ff7f0e"/>
     <use xlink:href="#m8d4d991e32" x="659.058792" y="212.392619" style="fill: #ff7f0e; stroke: #ff7f0e"/>
     <use xlink:href="#m8d4d991e32" x="663.283649" y="224.378841" style="fill: #ff7f0e; stroke: #ff7f0e"/>
     <use xlink:href="#m8d4d991e32" x="669.319159" y="227.069083" style="fill: #ff7f0e; stroke: #ff7f0e"/>
     <use xlink:href="#m8d4d991e32" x="675.656445" y="233.700882" style="fill: #ff7f0e; stroke: #ff7f0e"/>
     <use xlink:href="#m8d4d991e32" x="680.484853" y="236.890438" style="fill: #ff7f0e; stroke: #ff7f0e"/>
     <use xlink:href="#m8d4d991e32" x="682.899057" y="193.758978" style="fill: #ff7f0e; stroke: #ff7f0e"/>
     <use xlink:href="#m8d4d991e32" x="687.42569" y="165.126147" style="fill: #ff7f0e; stroke: #ff7f0e"/>
     <use xlink:href="#m8d4d991e32" x="688.632792" y="180.37237" style="fill: #ff7f0e; stroke: #ff7f0e"/>
     <use xlink:href="#m8d4d991e32" x="690.745221" y="113.571156" style="fill: #ff7f0e; stroke: #ff7f0e"/>
     <use xlink:href="#m8d4d991e32" x="691.650548" y="60.877668" style="fill: #ff7f0e; stroke: #ff7f0e"/>
     <use xlink:href="#m8d4d991e32" x="691.650548" y="75.814093" style="fill: #ff7f0e; stroke: #ff7f0e"/>
     <use xlink:href="#m8d4d991e32" x="692.254099" y="93.03192" style="fill: #ff7f0e; stroke: #ff7f0e"/>
     <use xlink:href="#m8d4d991e32" x="694.064752" y="134.727418" style="fill: #ff7f0e; stroke: #ff7f0e"/>
     <use xlink:href="#m8d4d991e32" x="695.271854" y="155.47135" style="fill: #ff7f0e; stroke: #ff7f0e"/>
     <use xlink:href="#m8d4d991e32" x="696.478956" y="174.140595" style="fill: #ff7f0e; stroke: #ff7f0e"/>
     <use xlink:href="#m8d4d991e32" x="698.591384" y="194.800334" style="fill: #ff7f0e; stroke: #ff7f0e"/>
     <use xlink:href="#m8d4d991e32" x="699.496711" y="204.010137" style="fill: #ff7f0e; stroke: #ff7f0e"/>
     <use xlink:href="#m8d4d991e32" x="704.92867" y="182.222158" style="fill: #ff7f0e; stroke: #ff7f0e"/>
     <use xlink:href="#m8d4d991e32" x="708.248201" y="163.755405" style="fill: #ff7f0e; stroke: #ff7f0e"/>
     <use xlink:href="#m8d4d991e32" x="708.248201" y="179.10673" style="fill: #ff7f0e; stroke: #ff7f0e"/>
     <use xlink:href="#m8d4d991e32" x="710.058854" y="141.764016" style="fill: #ff7f0e; stroke: #ff7f0e"/>
     <use xlink:href="#m8d4d991e32" x="713.378385" y="114.99934" style="fill: #ff7f0e; stroke: #ff7f0e"/>
     <use xlink:href="#m8d4d991e32" x="713.68016" y="126.325633" style="fill: #ff7f0e; stroke: #ff7f0e"/>
     <use xlink:href="#m8d4d991e32" x="714.283711" y="103.588561" style="fill: #ff7f0e; stroke: #ff7f0e"/>
     <use xlink:href="#m8d4d991e32" x="718.810344" y="104.911248" style="fill: #ff7f0e; stroke: #ff7f0e"/>
     <use xlink:href="#m8d4d991e32" x="720.922773" y="117.688205" style="fill: #ff7f0e; stroke: #ff7f0e"/>
     <use xlink:href="#m8d4d991e32" x="723.336977" y="135.028409" style="fill: #ff7f0e; stroke: #ff7f0e"/>
     <use xlink:href="#m8d4d991e32" x="724.242303" y="140.504069" style="fill: #ff7f0e; stroke: #ff7f0e"/>
     <use xlink:href="#m8d4d991e32" x="729.070712" y="135.831294" style="fill: #ff7f0e; stroke: #ff7f0e"/>
     <use xlink:href="#m8d4d991e32" x="732.390242" y="155.432045" style="fill: #ff7f0e; stroke: #ff7f0e"/>
     <use xlink:href="#m8d4d991e32" x="736.011549" y="174.72107" style="fill: #ff7f0e; stroke: #ff7f0e"/>
     <use xlink:href="#m8d4d991e32" x="739.029304" y="198.055789" style="fill: #ff7f0e; stroke: #ff7f0e"/>
     <use xlink:href="#m8d4d991e32" x="743.254161" y="197.740344" style="fill: #ff7f0e; stroke: #ff7f0e"/>
     <use xlink:href="#m8d4d991e32" x="745.668365" y="157.907123" style="fill: #ff7f0e; stroke: #ff7f0e"/>
     <use xlink:href="#m8d4d991e32" x="745.668365" y="181.556462" style="fill: #ff7f0e; stroke: #ff7f0e"/>
     <use xlink:href="#m8d4d991e32" x="747.780794" y="171.596642" style="fill: #ff7f0e; stroke: #ff7f0e"/>
     <use xlink:href="#m8d4d991e32" x="750.496774" y="197.110279" style="fill: #ff7f0e; stroke: #ff7f0e"/>
     <use xlink:href="#m8d4d991e32" x="752.307427" y="214.223003" style="fill: #ff7f0e; stroke: #ff7f0e"/>
     <use xlink:href="#m8d4d991e32" x="757.135835" y="221.872686" style="fill: #ff7f0e; stroke: #ff7f0e"/>
     <use xlink:href="#m8d4d991e32" x="761.360692" y="209.670198" style="fill: #ff7f0e; stroke: #ff7f0e"/>
     <use xlink:href="#m8d4d991e32" x="766.189101" y="228.83332" style="fill: #ff7f0e; stroke: #ff7f0e"/>
     <use xlink:href="#m8d4d991e32" x="772.224611" y="236.502701" style="fill: #ff7f0e; stroke: #ff7f0e"/>
     <use xlink:href="#m8d4d991e32" x="778.561897" y="240.437646" style="fill: #ff7f0e; stroke: #ff7f0e"/>
     <use xlink:href="#m8d4d991e32" x="784.295632" y="233.239973" style="fill: #ff7f0e; stroke: #ff7f0e"/>
     <use xlink:href="#m8d4d991e32" x="790.029366" y="230.408557" style="fill: #ff7f0e; stroke: #ff7f0e"/>
     <use xlink:href="#m8d4d991e32" x="793.348897" y="212.623689" style="fill: #ff7f0e; stroke: #ff7f0e"/>
     <use xlink:href="#m8d4d991e32" x="795.763101" y="147.896611" style="fill: #ff7f0e; stroke: #ff7f0e"/>
     <use xlink:href="#m8d4d991e32" x="796.366652" y="169.885613" style="fill: #ff7f0e; stroke: #ff7f0e"/>
     <use xlink:href="#m8d4d991e32" x="798.780856" y="183.989664" style="fill: #ff7f0e; stroke: #ff7f0e"/>
     <use xlink:href="#m8d4d991e32" x="799.686183" y="204.214971" style="fill: #ff7f0e; stroke: #ff7f0e"/>
     <use xlink:href="#m8d4d991e32" x="803.609265" y="215.848747" style="fill: #ff7f0e; stroke: #ff7f0e"/>
     <use xlink:href="#m8d4d991e32" x="806.023469" y="182.737249" style="fill: #ff7f0e; stroke: #ff7f0e"/>
     <use xlink:href="#m8d4d991e32" x="808.437673" y="137.42745" style="fill: #ff7f0e; stroke: #ff7f0e"/>
     <use xlink:href="#m8d4d991e32" x="809.041224" y="103.073012" style="fill: #ff7f0e; stroke: #ff7f0e"/>
     <use xlink:href="#m8d4d991e32" x="809.644775" y="115.726932" style="fill: #ff7f0e; stroke: #ff7f0e"/>
     <use xlink:href="#m8d4d991e32" x="814.171408" y="137.91938" style="fill: #ff7f0e; stroke: #ff7f0e"/>
     <use xlink:href="#m8d4d991e32" x="815.37851" y="158.144465" style="fill: #ff7f0e; stroke: #ff7f0e"/>
     <use xlink:href="#m8d4d991e32" x="817.490939" y="172.76751" style="fill: #ff7f0e; stroke: #ff7f0e"/>
     <use xlink:href="#m8d4d991e32" x="818.999816" y="186.45758" style="fill: #ff7f0e; stroke: #ff7f0e"/>
    </g>
   </g>
   <g id="patch_3">
    <path d="M 52.49 260.12 
L 52.49 25.44 
" style="fill: none; stroke: #000000; stroke-width: 0.8; stroke-linejoin: miter; stroke-linecap: square"/>
   </g>
   <g id="patch_4">
    <path d="M 824.13 260.12 
L 824.13 25.44 
" style="fill: none; stroke: #000000; stroke-width: 0.8; stroke-linejoin: miter; stroke-linecap: square"/>
   </g>
   <g id="patch_5">
    <path d="M 52.49 260.12 
L 824.13 260.12 
" style="fill: none; stroke: #000000; stroke-width: 0.8; stroke-linejoin: miter; stroke-linecap: square"/>
   </g>
   <g id="patch_6">
    <path d="M 52.49 25.44 
L 824.13 25.44 
" style="fill: none; stroke: #000000; stroke-width: 0.8; stroke-linejoin: miter; stroke-linecap: square"/>
   </g>
   <g id="text_14">
    <!-- Daily water storage level from 1988 to 1994 -->
    <g transform="translate(305.100625 19.44) scale(0.12 -0.12)">
     <defs>
      <path id="DejaVuSans-44" d="M 1259 4147 
L 1259 519 
L 2022 519 
Q 2988 519 3436 956 
Q 3884 1394 3884 2338 
Q 3884 3275 3436 3711 
Q 2988 4147 2022 4147 
L 1259 4147 
z
M 628 4666 
L 1925 4666 
Q 3281 4666 3915 4102 
Q 4550 3538 4550 2338 
Q 4550 1131 3912 565 
Q 3275 0 1925 0 
L 628 0 
L 628 4666 
z
" transform="scale(0.015625)"/>
      <path id="DejaVuSans-61" d="M 2194 1759 
Q 1497 1759 1228 1600 
Q 959 1441 959 1056 
Q 959 750 1161 570 
Q 1363 391 1709 391 
Q 2188 391 2477 730 
Q 2766 1069 2766 1631 
L 2766 1759 
L 2194 1759 
z
M 3341 1997 
L 3341 0 
L 2766 0 
L 2766 531 
Q 2569 213 2275 61 
Q 1981 -91 1556 -91 
Q 1019 -91 701 211 
Q 384 513 384 1019 
Q 384 1609 779 1909 
Q 1175 2209 1959 2209 
L 2766 2209 
L 2766 2266 
Q 2766 2663 2505 2880 
Q 2244 3097 1772 3097 
Q 1472 3097 1187 3025 
Q 903 2953 641 2809 
L 641 3341 
Q 956 3463 1253 3523 
Q 1550 3584 1831 3584 
Q 2591 3584 2966 3190 
Q 3341 2797 3341 1997 
z
" transform="scale(0.015625)"/>
      <path id="DejaVuSans-69" d="M 603 3500 
L 1178 3500 
L 1178 0 
L 603 0 
L 603 3500 
z
M 603 4863 
L 1178 4863 
L 1178 4134 
L 603 4134 
L 603 4863 
z
" transform="scale(0.015625)"/>
      <path id="DejaVuSans-6c" d="M 603 4863 
L 1178 4863 
L 1178 0 
L 603 0 
L 603 4863 
z
" transform="scale(0.015625)"/>
      <path id="DejaVuSans-79" d="M 2059 -325 
Q 1816 -950 1584 -1140 
Q 1353 -1331 966 -1331 
L 506 -1331 
L 506 -850 
L 844 -850 
Q 1081 -850 1212 -737 
Q 1344 -625 1503 -206 
L 1606 56 
L 191 3500 
L 800 3500 
L 1894 763 
L 2988 3500 
L 3597 3500 
L 2059 -325 
z
" transform="scale(0.015625)"/>
      <path id="DejaVuSans-77" d="M 269 3500 
L 844 3500 
L 1563 769 
L 2278 3500 
L 2956 3500 
L 3675 769 
L 4391 3500 
L 4966 3500 
L 4050 0 
L 3372 0 
L 2619 2869 
L 1863 0 
L 1184 0 
L 269 3500 
z
" transform="scale(0.015625)"/>
      <path id="DejaVuSans-74" d="M 1172 4494 
L 1172 3500 
L 2356 3500 
L 2356 3053 
L 1172 3053 
L 1172 1153 
Q 1172 725 1289 603 
Q 1406 481 1766 481 
L 2356 481 
L 2356 0 
L 1766 0 
Q 1100 0 847 248 
Q 594 497 594 1153 
L 594 3053 
L 172 3053 
L 172 3500 
L 594 3500 
L 594 4494 
L 1172 4494 
z
" transform="scale(0.015625)"/>
      <path id="DejaVuSans-65" d="M 3597 1894 
L 3597 1613 
L 953 1613 
Q 991 1019 1311 708 
Q 1631 397 2203 397 
Q 2534 397 2845 478 
Q 3156 559 3463 722 
L 3463 178 
Q 3153 47 2828 -22 
Q 2503 -91 2169 -91 
Q 1331 -91 842 396 
Q 353 884 353 1716 
Q 353 2575 817 3079 
Q 1281 3584 2069 3584 
Q 2775 3584 3186 3129 
Q 3597 2675 3597 1894 
z
M 3022 2063 
Q 3016 2534 2758 2815 
Q 2500 3097 2075 3097 
Q 1594 3097 1305 2825 
Q 1016 2553 972 2059 
L 3022 2063 
z
" transform="scale(0.015625)"/>
      <path id="DejaVuSans-72" d="M 2631 2963 
Q 2534 3019 2420 3045 
Q 2306 3072 2169 3072 
Q 1681 3072 1420 2755 
Q 1159 2438 1159 1844 
L 1159 0 
L 581 0 
L 581 3500 
L 1159 3500 
L 1159 2956 
Q 1341 3275 1631 3429 
Q 1922 3584 2338 3584 
Q 2397 3584 2469 3576 
Q 2541 3569 2628 3553 
L 2631 2963 
z
" transform="scale(0.015625)"/>
      <path id="DejaVuSans-73" d="M 2834 3397 
L 2834 2853 
Q 2591 2978 2328 3040 
Q 2066 3103 1784 3103 
Q 1356 3103 1142 2972 
Q 928 2841 928 2578 
Q 928 2378 1081 2264 
Q 1234 2150 1697 2047 
L 1894 2003 
Q 2506 1872 2764 1633 
Q 3022 1394 3022 966 
Q 3022 478 2636 193 
Q 2250 -91 1575 -91 
Q 1294 -91 989 -36 
Q 684 19 347 128 
L 347 722 
Q 666 556 975 473 
Q 1284 391 1588 391 
Q 1994 391 2212 530 
Q 2431 669 2431 922 
Q 2431 1156 2273 1281 
Q 2116 1406 1581 1522 
L 1381 1569 
Q 847 1681 609 1914 
Q 372 2147 372 2553 
Q 372 3047 722 3315 
Q 1072 3584 1716 3584 
Q 2034 3584 2315 3537 
Q 2597 3491 2834 3397 
z
" transform="scale(0.015625)"/>
      <path id="DejaVuSans-6f" d="M 1959 3097 
Q 1497 3097 1228 2736 
Q 959 2375 959 1747 
Q 959 1119 1226 758 
Q 1494 397 1959 397 
Q 2419 397 2687 759 
Q 2956 1122 2956 1747 
Q 2956 2369 2687 2733 
Q 2419 3097 1959 3097 
z
M 1959 3584 
Q 2709 3584 3137 3096 
Q 3566 2609 3566 1747 
Q 3566 888 3137 398 
Q 2709 -91 1959 -91 
Q 1206 -91 779 398 
Q 353 888 353 1747 
Q 353 2609 779 3096 
Q 1206 3584 1959 3584 
z
" transform="scale(0.015625)"/>
      <path id="DejaVuSans-67" d="M 2906 1791 
Q 2906 2416 2648 2759 
Q 2391 3103 1925 3103 
Q 1463 3103 1205 2759 
Q 947 2416 947 1791 
Q 947 1169 1205 825 
Q 1463 481 1925 481 
Q 2391 481 2648 825 
Q 2906 1169 2906 1791 
z
M 3481 434 
Q 3481 -459 3084 -895 
Q 2688 -1331 1869 -1331 
Q 1566 -1331 1297 -1286 
Q 1028 -1241 775 -1147 
L 775 -588 
Q 1028 -725 1275 -790 
Q 1522 -856 1778 -856 
Q 2344 -856 2625 -561 
Q 2906 -266 2906 331 
L 2906 616 
Q 2728 306 2450 153 
Q 2172 0 1784 0 
Q 1141 0 747 490 
Q 353 981 353 1791 
Q 353 2603 747 3093 
Q 1141 3584 1784 3584 
Q 2172 3584 2450 3431 
Q 2728 3278 2906 2969 
L 2906 3500 
L 3481 3500 
L 3481 434 
z
" transform="scale(0.015625)"/>
      <path id="DejaVuSans-76" d="M 191 3500 
L 800 3500 
L 1894 563 
L 2988 3500 
L 3597 3500 
L 2284 0 
L 1503 0 
L 191 3500 
z
" transform="scale(0.015625)"/>
      <path id="DejaVuSans-66" d="M 2375 4863 
L 2375 4384 
L 1825 4384 
Q 1516 4384 1395 4259 
Q 1275 4134 1275 3809 
L 1275 3500 
L 2222 3500 
L 2222 3053 
L 1275 3053 
L 1275 0 
L 697 0 
L 697 3053 
L 147 3053 
L 147 3500 
L 697 3500 
L 697 3744 
Q 697 4328 969 4595 
Q 1241 4863 1831 4863 
L 2375 4863 
z
" transform="scale(0.015625)"/>
     </defs>
     <use xlink:href="#DejaVuSans-44"/>
     <use xlink:href="#DejaVuSans-61" x="77.001953"/>
     <use xlink:href="#DejaVuSans-69" x="138.28125"/>
     <use xlink:href="#DejaVuSans-6c" x="166.064453"/>
     <use xlink:href="#DejaVuSans-79" x="193.847656"/>
     <use xlink:href="#DejaVuSans-20" x="253.027344"/>
     <use xlink:href="#DejaVuSans-77" x="284.814453"/>
     <use xlink:href="#DejaVuSans-61" x="366.601562"/>
     <use xlink:href="#DejaVuSans-74" x="427.880859"/>
     <use xlink:href="#DejaVuSans-65" x="467.089844"/>
     <use xlink:href="#DejaVuSans-72" x="528.613281"/>
     <use xlink:href="#DejaVuSans-20" x="569.726562"/>
     <use xlink:href="#DejaVuSans-73" x="601.513672"/>
     <use xlink:href="#DejaVuSans-74" x="653.613281"/>
     <use xlink:href="#DejaVuSans-6f" x="692.822266"/>
     <use xlink:href="#DejaVuSans-72" x="754.003906"/>
     <use xlink:href="#DejaVuSans-61" x="795.117188"/>
     <use xlink:href="#DejaVuSans-67" x="856.396484"/>
     <use xlink:href="#DejaVuSans-65" x="919.873047"/>
     <use xlink:href="#DejaVuSans-20" x="981.396484"/>
     <use xlink:href="#DejaVuSans-6c" x="1013.183594"/>
     <use xlink:href="#DejaVuSans-65" x="1040.966797"/>
     <use xlink:href="#DejaVuSans-76" x="1102.490234"/>
     <use xlink:href="#DejaVuSans-65" x="1161.669922"/>
     <use xlink:href="#DejaVuSans-6c" x="1223.193359"/>
     <use xlink:href="#DejaVuSans-20" x="1250.976562"/>
     <use xlink:href="#DejaVuSans-66" x="1282.763672"/>
     <use xlink:href="#DejaVuSans-72" x="1317.96875"/>
     <use xlink:href="#DejaVuSans-6f" x="1356.832031"/>
     <use xlink:href="#DejaVuSans-6d" x="1418.013672"/>
     <use xlink:href="#DejaVuSans-20" x="1515.425781"/>
     <use xlink:href="#DejaVuSans-31" x="1547.212891"/>
     <use xlink:href="#DejaVuSans-39" x="1610.835938"/>
     <use xlink:href="#DejaVuSans-38" x="1674.458984"/>
     <use xlink:href="#DejaVuSans-38" x="1738.082031"/>
     <use xlink:href="#DejaVuSans-20" x="1801.705078"/>
     <use xlink:href="#DejaVuSans-74" x="1833.492188"/>
     <use xlink:href="#DejaVuSans-6f" x="1872.701172"/>
     <use xlink:href="#DejaVuSans-20" x="1933.882812"/>
     <use xlink:href="#DejaVuSans-31" x="1965.669922"/>
     <use xlink:href="#DejaVuSans-39" x="2029.292969"/>
     <use xlink:href="#DejaVuSans-39" x="2092.916016"/>
     <use xlink:href="#DejaVuSans-34" x="2156.539062"/>
    </g>
   </g>
   <g id="legend_1">
    <g id="patch_7">
     <path d="M 720.664375 62.79625 
L 817.13 62.79625 
Q 819.13 62.79625 819.13 60.79625 
L 819.13 32.44 
Q 819.13 30.44 817.13 30.44 
L 720.664375 30.44 
Q 718.664375 30.44 718.664375 32.44 
L 718.664375 60.79625 
Q 718.664375 62.79625 720.664375 62.79625 
z
" style="fill: #ffffff; opacity: 0.8; stroke: #cccccc; stroke-linejoin: miter"/>
    </g>
    <g id="line2d_27">
     <path d="M 722.664375 38.538437 
L 732.664375 38.538437 
L 742.664375 38.538437 
" style="fill: none; stroke: #1f77b4; stroke-width: 1.5; stroke-linecap: square"/>
    </g>
    <g id="text_15">
     <!-- RE Model -->
     <g transform="translate(750.664375 42.038437) scale(0.1 -0.1)">
      <defs>
       <path id="DejaVuSans-52" d="M 2841 2188 
Q 3044 2119 3236 1894 
Q 3428 1669 3622 1275 
L 4263 0 
L 3584 0 
L 2988 1197 
Q 2756 1666 2539 1819 
Q 2322 1972 1947 1972 
L 1259 1972 
L 1259 0 
L 628 0 
L 628 4666 
L 2053 4666 
Q 2853 4666 3247 4331 
Q 3641 3997 3641 3322 
Q 3641 2881 3436 2590 
Q 3231 2300 2841 2188 
z
M 1259 4147 
L 1259 2491 
L 2053 2491 
Q 2509 2491 2742 2702 
Q 2975 2913 2975 3322 
Q 2975 3731 2742 3939 
Q 2509 4147 2053 4147 
L 1259 4147 
z
" transform="scale(0.015625)"/>
       <path id="DejaVuSans-45" d="M 628 4666 
L 3578 4666 
L 3578 4134 
L 1259 4134 
L 1259 2753 
L 3481 2753 
L 3481 2222 
L 1259 2222 
L 1259 531 
L 3634 531 
L 3634 0 
L 628 0 
L 628 4666 
z
" transform="scale(0.015625)"/>
       <path id="DejaVuSans-4d" d="M 628 4666 
L 1569 4666 
L 2759 1491 
L 3956 4666 
L 4897 4666 
L 4897 0 
L 4281 0 
L 4281 4097 
L 3078 897 
L 2444 897 
L 1241 4097 
L 1241 0 
L 628 0 
L 628 4666 
z
" transform="scale(0.015625)"/>
       <path id="DejaVuSans-64" d="M 2906 2969 
L 2906 4863 
L 3481 4863 
L 3481 0 
L 2906 0 
L 2906 525 
Q 2725 213 2448 61 
Q 2172 -91 1784 -91 
Q 1150 -91 751 415 
Q 353 922 353 1747 
Q 353 2572 751 3078 
Q 1150 3584 1784 3584 
Q 2172 3584 2448 3432 
Q 2725 3281 2906 2969 
z
M 947 1747 
Q 947 1113 1208 752 
Q 1469 391 1925 391 
Q 2381 391 2643 752 
Q 2906 1113 2906 1747 
Q 2906 2381 2643 2742 
Q 2381 3103 1925 3103 
Q 1469 3103 1208 2742 
Q 947 2381 947 1747 
z
" transform="scale(0.015625)"/>
      </defs>
      <use xlink:href="#DejaVuSans-52"/>
      <use xlink:href="#DejaVuSans-45" x="69.482422"/>
      <use xlink:href="#DejaVuSans-20" x="132.666016"/>
      <use xlink:href="#DejaVuSans-4d" x="164.453125"/>
      <use xlink:href="#DejaVuSans-6f" x="250.732422"/>
      <use xlink:href="#DejaVuSans-64" x="311.914062"/>
      <use xlink:href="#DejaVuSans-65" x="375.390625"/>
      <use xlink:href="#DejaVuSans-6c" x="436.914062"/>
     </g>
    </g>
    <g id="line2d_28">
     <g>
      <use xlink:href="#m8d4d991e32" x="732.664375" y="53.216562" style="fill: #ff7f0e; stroke: #ff7f0e"/>
     </g>
    </g>
    <g id="text_16">
     <!-- Mathias et al -->
     <g transform="translate(750.664375 56.716562) scale(0.1 -0.1)">
      <defs>
       <path id="DejaVuSans-68" d="M 3513 2113 
L 3513 0 
L 2938 0 
L 2938 2094 
Q 2938 2591 2744 2837 
Q 2550 3084 2163 3084 
Q 1697 3084 1428 2787 
Q 1159 2491 1159 1978 
L 1159 0 
L 581 0 
L 581 4863 
L 1159 4863 
L 1159 2956 
Q 1366 3272 1645 3428 
Q 1925 3584 2291 3584 
Q 2894 3584 3203 3211 
Q 3513 2838 3513 2113 
z
" transform="scale(0.015625)"/>
      </defs>
      <use xlink:href="#DejaVuSans-4d"/>
      <use xlink:href="#DejaVuSans-61" x="86.279297"/>
      <use xlink:href="#DejaVuSans-74" x="147.558594"/>
      <use xlink:href="#DejaVuSans-68" x="186.767578"/>
      <use xlink:href="#DejaVuSans-69" x="250.146484"/>
      <use xlink:href="#DejaVuSans-61" x="277.929688"/>
      <use xlink:href="#DejaVuSans-73" x="339.208984"/>
      <use xlink:href="#DejaVuSans-20" x="391.308594"/>
      <use xlink:href="#DejaVuSans-65" x="423.095703"/>
      <use xlink:href="#DejaVuSans-74" x="484.619141"/>
      <use xlink:href="#DejaVuSans-20" x="523.828125"/>
      <use xlink:href="#DejaVuSans-61" x="555.615234"/>
      <use xlink:href="#DejaVuSans-6c" x="616.894531"/>
     </g>
    </g>
   </g>
  </g>
 </g>
 <defs>
  <clipPath id="pa029f7a3e3">
   <rect x="52.49" y="25.44" width="771.64" height="234.68"/>
  </clipPath>
 </defs>
</svg>
